<?xml version="1.0" encoding="utf-8" standalone="no"?>
<!DOCTYPE svg PUBLIC "-//W3C//DTD SVG 1.1//EN"
  "http://www.w3.org/Graphics/SVG/1.1/DTD/svg11.dtd">
<!-- Created with matplotlib (https://matplotlib.org/) -->
<svg height="576pt" version="1.1" viewBox="0 0 720 576" width="720pt" xmlns="http://www.w3.org/2000/svg" xmlns:xlink="http://www.w3.org/1999/xlink">
 <defs>
  <style type="text/css">
*{stroke-linecap:butt;stroke-linejoin:round;}
  </style>
 </defs>
 <g id="figure_1">
  <g id="patch_1">
   <path d="M 0 576 
L 720 576 
L 720 0 
L 0 0 
z
" style="fill:#ffffff;"/>
  </g>
  <g id="axes_1">
   <g id="patch_2">
    <path d="M 72 267.054545 
L 648 267.054545 
L 648 57.6 
L 72 57.6 
z
" style="fill:#eeeeee;"/>
   </g>
   <g id="matplotlib.axis_1">
    <g id="xtick_1">
     <g id="line2d_1">
      <path clip-path="url(#p5477694139)" d="M 100.867133 267.054545 
L 100.867133 57.6 
" style="fill:none;stroke:#333333;stroke-dasharray:1.85,0.8;stroke-dashoffset:0;stroke-width:0.5;"/>
     </g>
     <g id="line2d_2">
      <defs>
       <path d="M 0 0 
L 0 -3.5 
" id="m65e6e2d3a0" style="stroke:#000000;stroke-width:0.8;"/>
      </defs>
      <g>
       <use style="stroke:#000000;stroke-width:0.8;" x="100.867133" xlink:href="#m65e6e2d3a0" y="267.054545"/>
      </g>
     </g>
    </g>
    <g id="xtick_2">
     <g id="line2d_3">
      <path clip-path="url(#p5477694139)" d="M 184.111888 267.054545 
L 184.111888 57.6 
" style="fill:none;stroke:#333333;stroke-dasharray:1.85,0.8;stroke-dashoffset:0;stroke-width:0.5;"/>
     </g>
     <g id="line2d_4">
      <g>
       <use style="stroke:#000000;stroke-width:0.8;" x="184.111888" xlink:href="#m65e6e2d3a0" y="267.054545"/>
      </g>
     </g>
    </g>
    <g id="xtick_3">
     <g id="line2d_5">
      <path clip-path="url(#p5477694139)" d="M 261.986014 267.054545 
L 261.986014 57.6 
" style="fill:none;stroke:#333333;stroke-dasharray:1.85,0.8;stroke-dashoffset:0;stroke-width:0.5;"/>
     </g>
     <g id="line2d_6">
      <g>
       <use style="stroke:#000000;stroke-width:0.8;" x="261.986014" xlink:href="#m65e6e2d3a0" y="267.054545"/>
      </g>
     </g>
    </g>
    <g id="xtick_4">
     <g id="line2d_7">
      <path clip-path="url(#p5477694139)" d="M 345.230769 267.054545 
L 345.230769 57.6 
" style="fill:none;stroke:#333333;stroke-dasharray:1.85,0.8;stroke-dashoffset:0;stroke-width:0.5;"/>
     </g>
     <g id="line2d_8">
      <g>
       <use style="stroke:#000000;stroke-width:0.8;" x="345.230769" xlink:href="#m65e6e2d3a0" y="267.054545"/>
      </g>
     </g>
    </g>
    <g id="xtick_5">
     <g id="line2d_9">
      <path clip-path="url(#p5477694139)" d="M 425.79021 267.054545 
L 425.79021 57.6 
" style="fill:none;stroke:#333333;stroke-dasharray:1.85,0.8;stroke-dashoffset:0;stroke-width:0.5;"/>
     </g>
     <g id="line2d_10">
      <g>
       <use style="stroke:#000000;stroke-width:0.8;" x="425.79021" xlink:href="#m65e6e2d3a0" y="267.054545"/>
      </g>
     </g>
    </g>
    <g id="xtick_6">
     <g id="line2d_11">
      <path clip-path="url(#p5477694139)" d="M 509.034965 267.054545 
L 509.034965 57.6 
" style="fill:none;stroke:#333333;stroke-dasharray:1.85,0.8;stroke-dashoffset:0;stroke-width:0.5;"/>
     </g>
     <g id="line2d_12">
      <g>
       <use style="stroke:#000000;stroke-width:0.8;" x="509.034965" xlink:href="#m65e6e2d3a0" y="267.054545"/>
      </g>
     </g>
    </g>
    <g id="xtick_7">
     <g id="line2d_13">
      <path clip-path="url(#p5477694139)" d="M 589.594406 267.054545 
L 589.594406 57.6 
" style="fill:none;stroke:#333333;stroke-dasharray:1.85,0.8;stroke-dashoffset:0;stroke-width:0.5;"/>
     </g>
     <g id="line2d_14">
      <g>
       <use style="stroke:#000000;stroke-width:0.8;" x="589.594406" xlink:href="#m65e6e2d3a0" y="267.054545"/>
      </g>
     </g>
    </g>
   </g>
   <g id="matplotlib.axis_2">
    <g id="ytick_1">
     <g id="line2d_15">
      <path clip-path="url(#p5477694139)" d="M 72 239.337709 
L 648 239.337709 
" style="fill:none;stroke:#333333;stroke-dasharray:1.85,0.8;stroke-dashoffset:0;stroke-width:0.5;"/>
     </g>
     <g id="line2d_16">
      <defs>
       <path d="M 0 0 
L 3.5 0 
" id="me11077ff4b" style="stroke:#000000;stroke-width:0.8;"/>
      </defs>
      <g>
       <use style="stroke:#000000;stroke-width:0.8;" x="72" xlink:href="#me11077ff4b" y="239.337709"/>
      </g>
     </g>
     <g id="text_1">
      <!-- 0 -->
      <defs>
       <path d="M 31.78125 66.40625 
Q 24.171875 66.40625 20.328125 58.90625 
Q 16.5 51.421875 16.5 36.375 
Q 16.5 21.390625 20.328125 13.890625 
Q 24.171875 6.390625 31.78125 6.390625 
Q 39.453125 6.390625 43.28125 13.890625 
Q 47.125 21.390625 47.125 36.375 
Q 47.125 51.421875 43.28125 58.90625 
Q 39.453125 66.40625 31.78125 66.40625 
z
M 31.78125 74.21875 
Q 44.046875 74.21875 50.515625 64.515625 
Q 56.984375 54.828125 56.984375 36.375 
Q 56.984375 17.96875 50.515625 8.265625 
Q 44.046875 -1.421875 31.78125 -1.421875 
Q 19.53125 -1.421875 13.0625 8.265625 
Q 6.59375 17.96875 6.59375 36.375 
Q 6.59375 54.828125 13.0625 64.515625 
Q 19.53125 74.21875 31.78125 74.21875 
z
" id="DejaVuSans-48"/>
      </defs>
      <g transform="translate(62.1375 243.136928)scale(0.1 -0.1)">
       <use xlink:href="#DejaVuSans-48"/>
      </g>
     </g>
    </g>
    <g id="ytick_2">
     <g id="line2d_17">
      <path clip-path="url(#p5477694139)" d="M 72 197.723646 
L 648 197.723646 
" style="fill:none;stroke:#333333;stroke-dasharray:1.85,0.8;stroke-dashoffset:0;stroke-width:0.5;"/>
     </g>
     <g id="line2d_18">
      <g>
       <use style="stroke:#000000;stroke-width:0.8;" x="72" xlink:href="#me11077ff4b" y="197.723646"/>
      </g>
     </g>
     <g id="text_2">
      <!-- 50 -->
      <defs>
       <path d="M 10.796875 72.90625 
L 49.515625 72.90625 
L 49.515625 64.59375 
L 19.828125 64.59375 
L 19.828125 46.734375 
Q 21.96875 47.46875 24.109375 47.828125 
Q 26.265625 48.1875 28.421875 48.1875 
Q 40.625 48.1875 47.75 41.5 
Q 54.890625 34.8125 54.890625 23.390625 
Q 54.890625 11.625 47.5625 5.09375 
Q 40.234375 -1.421875 26.90625 -1.421875 
Q 22.3125 -1.421875 17.546875 -0.640625 
Q 12.796875 0.140625 7.71875 1.703125 
L 7.71875 11.625 
Q 12.109375 9.234375 16.796875 8.0625 
Q 21.484375 6.890625 26.703125 6.890625 
Q 35.15625 6.890625 40.078125 11.328125 
Q 45.015625 15.765625 45.015625 23.390625 
Q 45.015625 31 40.078125 35.4375 
Q 35.15625 39.890625 26.703125 39.890625 
Q 22.75 39.890625 18.8125 39.015625 
Q 14.890625 38.140625 10.796875 36.28125 
z
" id="DejaVuSans-53"/>
      </defs>
      <g transform="translate(55.775 201.522865)scale(0.1 -0.1)">
       <use xlink:href="#DejaVuSans-53"/>
       <use x="63.623047" xlink:href="#DejaVuSans-48"/>
      </g>
     </g>
    </g>
    <g id="ytick_3">
     <g id="line2d_19">
      <path clip-path="url(#p5477694139)" d="M 72 156.109584 
L 648 156.109584 
" style="fill:none;stroke:#333333;stroke-dasharray:1.85,0.8;stroke-dashoffset:0;stroke-width:0.5;"/>
     </g>
     <g id="line2d_20">
      <g>
       <use style="stroke:#000000;stroke-width:0.8;" x="72" xlink:href="#me11077ff4b" y="156.109584"/>
      </g>
     </g>
     <g id="text_3">
      <!-- 100 -->
      <defs>
       <path d="M 12.40625 8.296875 
L 28.515625 8.296875 
L 28.515625 63.921875 
L 10.984375 60.40625 
L 10.984375 69.390625 
L 28.421875 72.90625 
L 38.28125 72.90625 
L 38.28125 8.296875 
L 54.390625 8.296875 
L 54.390625 0 
L 12.40625 0 
z
" id="DejaVuSans-49"/>
      </defs>
      <g transform="translate(49.4125 159.908803)scale(0.1 -0.1)">
       <use xlink:href="#DejaVuSans-49"/>
       <use x="63.623047" xlink:href="#DejaVuSans-48"/>
       <use x="127.246094" xlink:href="#DejaVuSans-48"/>
      </g>
     </g>
    </g>
    <g id="ytick_4">
     <g id="line2d_21">
      <path clip-path="url(#p5477694139)" d="M 72 114.495521 
L 648 114.495521 
" style="fill:none;stroke:#333333;stroke-dasharray:1.85,0.8;stroke-dashoffset:0;stroke-width:0.5;"/>
     </g>
     <g id="line2d_22">
      <g>
       <use style="stroke:#000000;stroke-width:0.8;" x="72" xlink:href="#me11077ff4b" y="114.495521"/>
      </g>
     </g>
     <g id="text_4">
      <!-- 150 -->
      <g transform="translate(49.4125 118.29474)scale(0.1 -0.1)">
       <use xlink:href="#DejaVuSans-49"/>
       <use x="63.623047" xlink:href="#DejaVuSans-53"/>
       <use x="127.246094" xlink:href="#DejaVuSans-48"/>
      </g>
     </g>
    </g>
    <g id="ytick_5">
     <g id="line2d_23">
      <path clip-path="url(#p5477694139)" d="M 72 72.881459 
L 648 72.881459 
" style="fill:none;stroke:#333333;stroke-dasharray:1.85,0.8;stroke-dashoffset:0;stroke-width:0.5;"/>
     </g>
     <g id="line2d_24">
      <g>
       <use style="stroke:#000000;stroke-width:0.8;" x="72" xlink:href="#me11077ff4b" y="72.881459"/>
      </g>
     </g>
     <g id="text_5">
      <!-- 200 -->
      <defs>
       <path d="M 19.1875 8.296875 
L 53.609375 8.296875 
L 53.609375 0 
L 7.328125 0 
L 7.328125 8.296875 
Q 12.9375 14.109375 22.625 23.890625 
Q 32.328125 33.6875 34.8125 36.53125 
Q 39.546875 41.84375 41.421875 45.53125 
Q 43.3125 49.21875 43.3125 52.78125 
Q 43.3125 58.59375 39.234375 62.25 
Q 35.15625 65.921875 28.609375 65.921875 
Q 23.96875 65.921875 18.8125 64.3125 
Q 13.671875 62.703125 7.8125 59.421875 
L 7.8125 69.390625 
Q 13.765625 71.78125 18.9375 73 
Q 24.125 74.21875 28.421875 74.21875 
Q 39.75 74.21875 46.484375 68.546875 
Q 53.21875 62.890625 53.21875 53.421875 
Q 53.21875 48.921875 51.53125 44.890625 
Q 49.859375 40.875 45.40625 35.40625 
Q 44.1875 33.984375 37.640625 27.21875 
Q 31.109375 20.453125 19.1875 8.296875 
z
" id="DejaVuSans-50"/>
      </defs>
      <g transform="translate(49.4125 76.680677)scale(0.1 -0.1)">
       <use xlink:href="#DejaVuSans-50"/>
       <use x="63.623047" xlink:href="#DejaVuSans-48"/>
       <use x="127.246094" xlink:href="#DejaVuSans-48"/>
      </g>
     </g>
    </g>
    <g id="text_6">
     <!-- cases per million -->
     <defs>
      <path d="M 48.78125 52.59375 
L 48.78125 44.1875 
Q 44.96875 46.296875 41.140625 47.34375 
Q 37.3125 48.390625 33.40625 48.390625 
Q 24.65625 48.390625 19.8125 42.84375 
Q 14.984375 37.3125 14.984375 27.296875 
Q 14.984375 17.28125 19.8125 11.734375 
Q 24.65625 6.203125 33.40625 6.203125 
Q 37.3125 6.203125 41.140625 7.25 
Q 44.96875 8.296875 48.78125 10.40625 
L 48.78125 2.09375 
Q 45.015625 0.34375 40.984375 -0.53125 
Q 36.96875 -1.421875 32.421875 -1.421875 
Q 20.0625 -1.421875 12.78125 6.34375 
Q 5.515625 14.109375 5.515625 27.296875 
Q 5.515625 40.671875 12.859375 48.328125 
Q 20.21875 56 33.015625 56 
Q 37.15625 56 41.109375 55.140625 
Q 45.0625 54.296875 48.78125 52.59375 
z
" id="DejaVuSans-99"/>
      <path d="M 34.28125 27.484375 
Q 23.390625 27.484375 19.1875 25 
Q 14.984375 22.515625 14.984375 16.5 
Q 14.984375 11.71875 18.140625 8.90625 
Q 21.296875 6.109375 26.703125 6.109375 
Q 34.1875 6.109375 38.703125 11.40625 
Q 43.21875 16.703125 43.21875 25.484375 
L 43.21875 27.484375 
z
M 52.203125 31.203125 
L 52.203125 0 
L 43.21875 0 
L 43.21875 8.296875 
Q 40.140625 3.328125 35.546875 0.953125 
Q 30.953125 -1.421875 24.3125 -1.421875 
Q 15.921875 -1.421875 10.953125 3.296875 
Q 6 8.015625 6 15.921875 
Q 6 25.140625 12.171875 29.828125 
Q 18.359375 34.515625 30.609375 34.515625 
L 43.21875 34.515625 
L 43.21875 35.40625 
Q 43.21875 41.609375 39.140625 45 
Q 35.0625 48.390625 27.6875 48.390625 
Q 23 48.390625 18.546875 47.265625 
Q 14.109375 46.140625 10.015625 43.890625 
L 10.015625 52.203125 
Q 14.9375 54.109375 19.578125 55.046875 
Q 24.21875 56 28.609375 56 
Q 40.484375 56 46.34375 49.84375 
Q 52.203125 43.703125 52.203125 31.203125 
z
" id="DejaVuSans-97"/>
      <path d="M 44.28125 53.078125 
L 44.28125 44.578125 
Q 40.484375 46.53125 36.375 47.5 
Q 32.28125 48.484375 27.875 48.484375 
Q 21.1875 48.484375 17.84375 46.4375 
Q 14.5 44.390625 14.5 40.28125 
Q 14.5 37.15625 16.890625 35.375 
Q 19.28125 33.59375 26.515625 31.984375 
L 29.59375 31.296875 
Q 39.15625 29.25 43.1875 25.515625 
Q 47.21875 21.78125 47.21875 15.09375 
Q 47.21875 7.46875 41.1875 3.015625 
Q 35.15625 -1.421875 24.609375 -1.421875 
Q 20.21875 -1.421875 15.453125 -0.5625 
Q 10.6875 0.296875 5.421875 2 
L 5.421875 11.28125 
Q 10.40625 8.6875 15.234375 7.390625 
Q 20.0625 6.109375 24.8125 6.109375 
Q 31.15625 6.109375 34.5625 8.28125 
Q 37.984375 10.453125 37.984375 14.40625 
Q 37.984375 18.0625 35.515625 20.015625 
Q 33.0625 21.96875 24.703125 23.78125 
L 21.578125 24.515625 
Q 13.234375 26.265625 9.515625 29.90625 
Q 5.8125 33.546875 5.8125 39.890625 
Q 5.8125 47.609375 11.28125 51.796875 
Q 16.75 56 26.8125 56 
Q 31.78125 56 36.171875 55.265625 
Q 40.578125 54.546875 44.28125 53.078125 
z
" id="DejaVuSans-115"/>
      <path d="M 56.203125 29.59375 
L 56.203125 25.203125 
L 14.890625 25.203125 
Q 15.484375 15.921875 20.484375 11.0625 
Q 25.484375 6.203125 34.421875 6.203125 
Q 39.59375 6.203125 44.453125 7.46875 
Q 49.3125 8.734375 54.109375 11.28125 
L 54.109375 2.78125 
Q 49.265625 0.734375 44.1875 -0.34375 
Q 39.109375 -1.421875 33.890625 -1.421875 
Q 20.796875 -1.421875 13.15625 6.1875 
Q 5.515625 13.8125 5.515625 26.8125 
Q 5.515625 40.234375 12.765625 48.109375 
Q 20.015625 56 32.328125 56 
Q 43.359375 56 49.78125 48.890625 
Q 56.203125 41.796875 56.203125 29.59375 
z
M 47.21875 32.234375 
Q 47.125 39.59375 43.09375 43.984375 
Q 39.0625 48.390625 32.421875 48.390625 
Q 24.90625 48.390625 20.390625 44.140625 
Q 15.875 39.890625 15.1875 32.171875 
z
" id="DejaVuSans-101"/>
      <path id="DejaVuSans-32"/>
      <path d="M 18.109375 8.203125 
L 18.109375 -20.796875 
L 9.078125 -20.796875 
L 9.078125 54.6875 
L 18.109375 54.6875 
L 18.109375 46.390625 
Q 20.953125 51.265625 25.265625 53.625 
Q 29.59375 56 35.59375 56 
Q 45.5625 56 51.78125 48.09375 
Q 58.015625 40.1875 58.015625 27.296875 
Q 58.015625 14.40625 51.78125 6.484375 
Q 45.5625 -1.421875 35.59375 -1.421875 
Q 29.59375 -1.421875 25.265625 0.953125 
Q 20.953125 3.328125 18.109375 8.203125 
z
M 48.6875 27.296875 
Q 48.6875 37.203125 44.609375 42.84375 
Q 40.53125 48.484375 33.40625 48.484375 
Q 26.265625 48.484375 22.1875 42.84375 
Q 18.109375 37.203125 18.109375 27.296875 
Q 18.109375 17.390625 22.1875 11.75 
Q 26.265625 6.109375 33.40625 6.109375 
Q 40.53125 6.109375 44.609375 11.75 
Q 48.6875 17.390625 48.6875 27.296875 
z
" id="DejaVuSans-112"/>
      <path d="M 41.109375 46.296875 
Q 39.59375 47.171875 37.8125 47.578125 
Q 36.03125 48 33.890625 48 
Q 26.265625 48 22.1875 43.046875 
Q 18.109375 38.09375 18.109375 28.8125 
L 18.109375 0 
L 9.078125 0 
L 9.078125 54.6875 
L 18.109375 54.6875 
L 18.109375 46.1875 
Q 20.953125 51.171875 25.484375 53.578125 
Q 30.03125 56 36.53125 56 
Q 37.453125 56 38.578125 55.875 
Q 39.703125 55.765625 41.0625 55.515625 
z
" id="DejaVuSans-114"/>
      <path d="M 52 44.1875 
Q 55.375 50.25 60.0625 53.125 
Q 64.75 56 71.09375 56 
Q 79.640625 56 84.28125 50.015625 
Q 88.921875 44.046875 88.921875 33.015625 
L 88.921875 0 
L 79.890625 0 
L 79.890625 32.71875 
Q 79.890625 40.578125 77.09375 44.375 
Q 74.3125 48.1875 68.609375 48.1875 
Q 61.625 48.1875 57.5625 43.546875 
Q 53.515625 38.921875 53.515625 30.90625 
L 53.515625 0 
L 44.484375 0 
L 44.484375 32.71875 
Q 44.484375 40.625 41.703125 44.40625 
Q 38.921875 48.1875 33.109375 48.1875 
Q 26.21875 48.1875 22.15625 43.53125 
Q 18.109375 38.875 18.109375 30.90625 
L 18.109375 0 
L 9.078125 0 
L 9.078125 54.6875 
L 18.109375 54.6875 
L 18.109375 46.1875 
Q 21.1875 51.21875 25.484375 53.609375 
Q 29.78125 56 35.6875 56 
Q 41.65625 56 45.828125 52.96875 
Q 50 49.953125 52 44.1875 
z
" id="DejaVuSans-109"/>
      <path d="M 9.421875 54.6875 
L 18.40625 54.6875 
L 18.40625 0 
L 9.421875 0 
z
M 9.421875 75.984375 
L 18.40625 75.984375 
L 18.40625 64.59375 
L 9.421875 64.59375 
z
" id="DejaVuSans-105"/>
      <path d="M 9.421875 75.984375 
L 18.40625 75.984375 
L 18.40625 0 
L 9.421875 0 
z
" id="DejaVuSans-108"/>
      <path d="M 30.609375 48.390625 
Q 23.390625 48.390625 19.1875 42.75 
Q 14.984375 37.109375 14.984375 27.296875 
Q 14.984375 17.484375 19.15625 11.84375 
Q 23.34375 6.203125 30.609375 6.203125 
Q 37.796875 6.203125 41.984375 11.859375 
Q 46.1875 17.53125 46.1875 27.296875 
Q 46.1875 37.015625 41.984375 42.703125 
Q 37.796875 48.390625 30.609375 48.390625 
z
M 30.609375 56 
Q 42.328125 56 49.015625 48.375 
Q 55.71875 40.765625 55.71875 27.296875 
Q 55.71875 13.875 49.015625 6.21875 
Q 42.328125 -1.421875 30.609375 -1.421875 
Q 18.84375 -1.421875 12.171875 6.21875 
Q 5.515625 13.875 5.515625 27.296875 
Q 5.515625 40.765625 12.171875 48.375 
Q 18.84375 56 30.609375 56 
z
" id="DejaVuSans-111"/>
      <path d="M 54.890625 33.015625 
L 54.890625 0 
L 45.90625 0 
L 45.90625 32.71875 
Q 45.90625 40.484375 42.875 44.328125 
Q 39.84375 48.1875 33.796875 48.1875 
Q 26.515625 48.1875 22.3125 43.546875 
Q 18.109375 38.921875 18.109375 30.90625 
L 18.109375 0 
L 9.078125 0 
L 9.078125 54.6875 
L 18.109375 54.6875 
L 18.109375 46.1875 
Q 21.34375 51.125 25.703125 53.5625 
Q 30.078125 56 35.796875 56 
Q 45.21875 56 50.046875 50.171875 
Q 54.890625 44.34375 54.890625 33.015625 
z
" id="DejaVuSans-110"/>
     </defs>
     <g transform="translate(42.916875 213.01321)rotate(-90)scale(0.12 -0.12)">
      <use xlink:href="#DejaVuSans-99"/>
      <use x="54.980469" xlink:href="#DejaVuSans-97"/>
      <use x="116.259766" xlink:href="#DejaVuSans-115"/>
      <use x="168.359375" xlink:href="#DejaVuSans-101"/>
      <use x="229.882812" xlink:href="#DejaVuSans-115"/>
      <use x="281.982422" xlink:href="#DejaVuSans-32"/>
      <use x="313.769531" xlink:href="#DejaVuSans-112"/>
      <use x="377.246094" xlink:href="#DejaVuSans-101"/>
      <use x="438.769531" xlink:href="#DejaVuSans-114"/>
      <use x="479.882812" xlink:href="#DejaVuSans-32"/>
      <use x="511.669922" xlink:href="#DejaVuSans-109"/>
      <use x="609.082031" xlink:href="#DejaVuSans-105"/>
      <use x="636.865234" xlink:href="#DejaVuSans-108"/>
      <use x="664.648438" xlink:href="#DejaVuSans-108"/>
      <use x="692.431641" xlink:href="#DejaVuSans-105"/>
      <use x="720.214844" xlink:href="#DejaVuSans-111"/>
      <use x="781.396484" xlink:href="#DejaVuSans-110"/>
     </g>
    </g>
   </g>
   <g id="line2d_25">
    <path clip-path="url(#p5477694139)" d="M 280.783217 239.099916 
L 283.468531 239.099916 
L 291.524476 238.981019 
L 294.20979 237.435362 
L 296.895105 238.386536 
L 299.58042 238.148742 
L 302.265734 238.148742 
L 304.951049 238.029846 
L 307.636364 237.078672 
L 310.321678 238.029846 
L 313.006993 237.792052 
L 315.692308 236.721982 
L 318.377622 235.057429 
L 321.062937 236.721982 
L 323.748252 237.435362 
L 326.433566 237.078672 
L 329.118881 236.721982 
L 331.804196 236.721982 
L 334.48951 235.889706 
L 337.174825 234.819636 
L 339.86014 237.554259 
L 342.545455 237.792052 
L 345.230769 234.581843 
L 347.916084 236.603086 
L 350.601399 235.176326 
L 353.286713 236.008602 
L 355.972028 237.197569 
L 358.657343 236.008602 
L 361.342657 237.197569 
L 364.027972 236.008602 
L 366.713287 237.435362 
L 369.398601 235.651913 
L 372.083916 238.029846 
L 374.769231 236.246396 
L 377.454545 237.673156 
L 380.13986 238.148742 
L 382.825175 236.008602 
L 385.51049 235.295223 
L 388.195804 233.036186 
L 390.881119 233.868463 
L 393.566434 235.533016 
L 396.251748 234.938533 
L 398.937063 237.673156 
L 401.622378 233.868463 
L 404.307692 233.511773 
L 406.993007 230.658253 
L 409.678322 228.518113 
L 412.363636 232.322806 
L 415.048951 233.036186 
L 417.734266 231.847219 
L 420.41958 235.057429 
L 423.104895 233.630669 
L 425.79021 232.322806 
L 428.475524 229.588183 
L 431.160839 238.624329 
L 433.846154 236.484189 
L 436.531469 235.295223 
L 439.216783 234.938533 
L 441.902098 228.755906 
L 444.587413 233.273979 
L 447.272727 229.588183 
L 449.958042 234.106256 
L 452.643357 238.148742 
L 455.328671 236.365292 
L 458.013986 235.414119 
L 460.699301 233.868463 
L 463.384615 235.651913 
L 466.06993 234.819636 
L 468.755245 230.658253 
L 471.440559 236.484189 
L 474.125874 236.484189 
L 476.811189 235.414119 
L 479.496503 234.700739 
L 482.181818 234.462946 
L 484.867133 235.057429 
L 487.552448 239.337709 
L 490.237762 236.365292 
L 492.923077 239.337709 
L 495.608392 236.127499 
L 498.293706 239.337709 
L 500.979021 236.365292 
L 503.664336 237.673156 
L 506.34965 237.673156 
L 509.034965 239.337709 
L 511.72028 239.337709 
L 514.405594 236.365292 
L 517.090909 233.749566 
L 519.776224 239.337709 
L 522.461538 229.469286 
L 525.146853 234.225153 
L 527.832168 237.435362 
L 530.517483 229.469286 
L 533.202797 229.944873 
L 535.888112 239.337709 
L 538.573427 215.915067 
L 541.258741 226.85356 
L 543.944056 230.42046 
L 546.629371 236.484189 
L 549.314685 233.273979 
L 552 226.021283 
L 554.685315 228.755906 
L 557.370629 223.64335 
L 560.055944 229.70708 
L 562.741259 225.4268 
L 565.426573 235.414119 
L 568.111888 229.944873 
L 570.797203 223.881143 
L 573.482517 224.118937 
L 576.167832 219.600864 
L 578.853147 226.85356 
L 581.538462 226.021283 
L 584.223776 231.490529 
L 586.909091 222.692177 
L 589.594406 220.552037 
L 592.27972 219.71976 
L 594.965035 220.195347 
L 597.65035 217.698517 
L 600.335664 217.93631 
L 603.020979 231.847219 
L 605.706294 218.64969 
L 608.391608 216.985137 
L 611.076923 210.802511 
L 613.762238 200.101811 
L 616.447552 239.337709 
L 619.132867 239.337709 
L 621.818182 137.918859 
" style="fill:none;stroke:#348abd;stroke-linecap:square;stroke-width:2;"/>
   </g>
   <g id="line2d_26">
    <path clip-path="url(#p5477694139)" d="M 280.783217 236.323817 
L 283.468531 237.053781 
L 291.524476 237.641099 
L 294.20979 238.100217 
L 296.895105 238.444672 
L 299.58042 238.687133 
L 302.265734 238.839426 
L 304.951049 238.912575 
L 307.636364 238.916828 
L 310.321678 238.861693 
L 313.006993 238.755963 
L 315.692308 238.607753 
L 318.377622 238.424526 
L 321.062937 238.21312 
L 323.748252 237.979784 
L 326.433566 237.730196 
L 329.118881 237.469498 
L 331.804196 237.202321 
L 334.48951 236.932808 
L 337.174825 236.664644 
L 339.86014 236.401078 
L 342.545455 236.144947 
L 345.230769 235.898703 
L 347.916084 235.664433 
L 350.601399 235.443883 
L 353.286713 235.238482 
L 355.972028 235.049357 
L 358.657343 234.877361 
L 361.342657 234.723091 
L 364.027972 234.586904 
L 366.713287 234.468943 
L 369.398601 234.369148 
L 372.083916 234.287279 
L 374.769231 234.222932 
L 377.454545 234.175555 
L 380.13986 234.144466 
L 382.825175 234.128863 
L 385.51049 234.127848 
L 388.195804 234.140432 
L 390.881119 234.165557 
L 393.566434 234.202103 
L 396.251748 234.248903 
L 398.937063 234.304754 
L 401.622378 234.368431 
L 404.307692 234.438695 
L 406.993007 234.514304 
L 409.678322 234.594024 
L 412.363636 234.676635 
L 415.048951 234.760943 
L 417.734266 234.845783 
L 420.41958 234.930035 
L 423.104895 235.012618 
L 425.79021 235.092509 
L 428.475524 235.16874 
L 431.160839 235.240405 
L 433.846154 235.306665 
L 436.531469 235.366752 
L 439.216783 235.419972 
L 441.902098 235.465706 
L 444.587413 235.503413 
L 447.272727 235.532633 
L 449.958042 235.552984 
L 452.643357 235.564165 
L 455.328671 235.565956 
L 458.013986 235.558214 
L 460.699301 235.540875 
L 463.384615 235.513948 
L 466.06993 235.477517 
L 468.755245 235.431732 
L 471.440559 235.37681 
L 474.125874 235.313026 
L 476.811189 235.240714 
L 479.496503 235.160253 
L 482.181818 235.072069 
L 484.867133 234.976621 
L 487.552448 234.874398 
L 490.237762 234.76591 
L 492.923077 234.651678 
L 495.608392 234.532227 
L 498.293706 234.408073 
L 500.979021 234.279714 
L 503.664336 234.147621 
L 506.34965 234.012224 
L 509.034965 233.873899 
L 511.72028 233.732957 
L 514.405594 233.589631 
L 517.090909 233.44406 
L 519.776224 233.296276 
L 522.461538 233.146187 
L 525.146853 232.993563 
L 527.832168 232.838021 
L 530.517483 232.679003 
L 533.202797 232.515763 
L 535.888112 232.347348 
L 538.573427 232.172577 
L 541.258741 231.990025 
L 543.944056 231.798 
L 546.629371 231.594524 
L 549.314685 231.377314 
L 552 231.143754 
L 554.685315 230.890881 
L 557.370629 230.615356 
L 560.055944 230.313441 
L 562.741259 229.980979 
L 565.426573 229.613365 
L 568.111888 229.205523 
L 570.797203 228.751881 
L 573.482517 228.246342 
L 576.167832 227.682258 
L 578.853147 227.052402 
L 581.538462 226.348944 
L 584.223776 225.563414 
L 586.909091 224.686681 
L 589.594406 223.708917 
L 592.27972 222.619571 
L 594.965035 221.407334 
L 597.65035 220.060109 
L 600.335664 218.56498 
L 603.020979 216.908176 
L 605.706294 215.075041 
L 608.391608 213.049995 
L 611.076923 210.816507 
L 613.762238 208.35705 
L 616.447552 205.653076 
L 619.132867 202.684968 
L 621.818182 199.432013 
" style="fill:none;stroke:#348abd;stroke-dasharray:7.4,3.2;stroke-dashoffset:0;stroke-width:2;"/>
   </g>
   <g id="line2d_27">
    <path clip-path="url(#p5477694139)" d="M 98.181818 239.337709 
L 272.727273 239.251715 
L 278.097902 239.07214 
L 283.468531 239.031672 
L 288.839161 238.652287 
L 291.524476 238.61182 
L 294.20979 238.449949 
L 296.895105 238.045272 
L 299.58042 237.372496 
L 304.951049 237.094281 
L 307.636364 234.871087 
L 310.321678 231.780366 
L 313.006993 227.108876 
L 315.692308 225.745621 
L 318.377622 221.321995 
L 321.062937 217.942942 
L 323.748252 210.919267 
L 326.433566 217.108296 
L 329.118881 204.022054 
L 331.804196 196.854213 
L 334.48951 192.053732 
L 337.174825 188.806199 
L 339.86014 192.901024 
L 342.545455 184.718961 
L 345.230769 176.111988 
L 347.916084 170.787956 
L 350.601399 166.447795 
L 353.286713 157.327388 
L 355.972028 152.655898 
L 358.657343 175.100295 
L 361.342657 162.041875 
L 364.027972 161.910355 
L 366.713287 155.056138 
L 369.398601 153.594242 
L 372.083916 149.481713 
L 374.769231 167.530306 
L 377.454545 169.480344 
L 380.13986 176.048757 
L 382.825175 171.245747 
L 385.51049 163.086447 
L 388.195804 159.244545 
L 390.881119 161.353924 
L 393.566434 156.07036 
L 396.251748 177.116092 
L 398.937063 168.354836 
L 401.622378 145.025207 
L 404.307692 194.853591 
L 406.993007 172.204326 
L 409.678322 185.333565 
L 412.363636 116.596649 
L 415.048951 171.410147 
L 417.734266 182.326309 
L 420.41958 178.302302 
L 423.104895 170.223937 
L 425.79021 163.670699 
L 428.475524 153.457664 
L 431.160839 165.261586 
L 433.846154 176.177748 
L 436.531469 182.194789 
L 439.216783 179.038308 
L 441.902098 178.312419 
L 444.587413 167.585949 
L 449.958042 174.55904 
L 452.643357 188.100544 
L 455.328671 193.515628 
L 458.013986 183.57322 
L 460.699301 186.775226 
L 463.384615 170.686787 
L 466.06993 174.82208 
L 468.755245 177.404425 
L 471.440559 191.603529 
L 474.125874 184.096771 
L 476.811189 188.828962 
L 479.496503 180.444561 
L 482.181818 175.009243 
L 484.867133 178.264363 
L 487.552448 185.626955 
L 490.237762 187.316482 
L 492.923077 191.120446 
L 498.293706 191.987972 
L 500.979021 184.157472 
L 503.664336 175.254578 
L 506.34965 180.41421 
L 509.034965 189.241227 
L 511.72028 186.00634 
L 514.405594 187.377183 
L 517.090909 189.514384 
L 519.776224 185.869762 
L 522.461538 175.656726 
L 525.146853 183.130604 
L 527.832168 182.930795 
L 530.517483 191.73252 
L 533.202797 192.129609 
L 535.888112 187.200137 
L 538.573427 181.461312 
L 541.258741 174.490751 
L 543.944056 174.741144 
L 546.629371 189.908944 
L 549.314685 188.861842 
L 552 179.382284 
L 554.685315 174.693089 
L 560.055944 163.690933 
L 562.741259 152.94423 
L 565.426573 174.101249 
L 568.111888 159.945142 
L 570.797203 151.522802 
L 573.482517 152.486439 
L 576.167832 135.768221 
L 578.853147 124.189401 
L 581.538462 131.880793 
L 584.223776 141.524751 
L 586.909091 134.232978 
L 589.594406 128.355044 
L 592.27972 107.696284 
L 594.965035 104.279293 
L 597.65035 101.641305 
L 600.335664 124.963345 
L 603.020979 115.170162 
L 605.706294 112.901442 
L 608.391608 93.975205 
L 611.076923 90.350817 
L 613.762238 79.986027 
L 616.447552 70.827681 
L 619.132867 79.867153 
L 621.818182 94.51899 
L 621.818182 94.51899 
" style="fill:none;stroke:#a60628;stroke-linecap:square;stroke-width:2;"/>
   </g>
   <g id="line2d_28">
    <path clip-path="url(#p5477694139)" d="M 98.181818 257.533884 
L 100.867133 252.952972 
L 103.552448 248.889854 
L 106.237762 245.311837 
L 108.923077 242.187429 
L 111.608392 239.486304 
L 114.293706 237.179286 
L 116.979021 235.238324 
L 119.664336 233.636462 
L 122.34965 232.347821 
L 125.034965 231.347576 
L 127.72028 230.611926 
L 130.405594 230.118078 
L 133.090909 229.844221 
L 135.776224 229.769503 
L 138.461538 229.874011 
L 141.146853 230.138744 
L 143.832168 230.545598 
L 149.202797 231.717575 
L 154.573427 233.262133 
L 159.944056 235.064385 
L 170.685315 239.043049 
L 181.426573 242.967997 
L 186.797203 244.741934 
L 192.167832 246.319388 
L 197.538462 247.658129 
L 202.909091 248.723938 
L 208.27972 249.490058 
L 213.65035 249.936661 
L 219.020979 250.050328 
L 224.391608 249.82354 
L 229.762238 249.254192 
L 235.132867 248.345111 
L 240.503497 247.103595 
L 245.874126 245.540967 
L 251.244755 243.672139 
L 256.615385 241.515191 
L 261.986014 239.090971 
L 267.356643 236.422698 
L 272.727273 233.53559 
L 278.097902 230.456501 
L 286.153846 225.539733 
L 294.20979 220.353223 
L 307.636364 211.384443 
L 323.748252 200.657564 
L 331.804196 195.531358 
L 339.86014 190.679824 
L 345.230769 187.636821 
L 350.601399 184.771413 
L 355.972028 182.102386 
L 361.342657 179.646386 
L 366.713287 177.417798 
L 372.083916 175.42864 
L 377.454545 173.688458 
L 382.825175 172.204251 
L 388.195804 170.980404 
L 393.566434 170.01863 
L 398.937063 169.317938 
L 404.307692 168.874603 
L 409.678322 168.68216 
L 415.048951 168.731407 
L 420.41958 169.010427 
L 425.79021 169.504616 
L 431.160839 170.196736 
L 436.531469 171.066974 
L 444.587413 172.656839 
L 452.643357 174.511373 
L 466.06993 177.923118 
L 479.496503 181.288176 
L 487.552448 183.048547 
L 492.923077 184.033549 
L 498.293706 184.820797 
L 503.664336 185.369416 
L 509.034965 185.638201 
L 514.405594 185.585894 
L 519.776224 185.171463 
L 525.146853 184.354406 
L 527.832168 183.782457 
L 530.517483 183.095061 
L 533.202797 182.287446 
L 535.888112 181.354936 
L 538.573427 180.292956 
L 541.258741 179.097052 
L 543.944056 177.762896 
L 546.629371 176.286301 
L 549.314685 174.66323 
L 552 172.889812 
L 554.685315 170.962352 
L 557.370629 168.877343 
L 560.055944 166.631482 
L 562.741259 164.221679 
L 565.426573 161.645073 
L 568.111888 158.899044 
L 570.797203 155.981229 
L 573.482517 152.889533 
L 576.167832 149.622145 
L 581.538462 142.554555 
L 586.909091 134.770199 
L 592.27972 126.2663 
L 597.65035 117.046059 
L 603.020979 107.119159 
L 608.391608 96.502296 
L 613.762238 85.219706 
L 619.132867 73.30372 
L 621.818182 67.120661 
L 621.818182 67.120661 
" style="fill:none;stroke:#a60628;stroke-dasharray:7.4,3.2;stroke-dashoffset:0;stroke-width:2;"/>
   </g>
   <g id="line2d_29">
    <path clip-path="url(#p5477694139)" d="M 98.181818 239.337709 
L 302.265734 239.314887 
L 304.951049 239.166543 
L 307.636364 239.217892 
L 318.377622 239.035315 
L 321.062937 238.584577 
L 323.748252 239.337709 
L 326.433566 239.012493 
L 329.118881 238.407705 
L 337.174825 238.036844 
L 342.545455 237.614633 
L 345.230769 236.479229 
L 347.916084 236.827268 
L 350.601399 234.938731 
L 353.286713 235.908674 
L 355.972028 236.01708 
L 358.657343 235.583458 
L 361.342657 233.894616 
L 364.027972 232.753506 
L 366.713287 232.633689 
L 369.398601 231.013314 
L 372.083916 229.147599 
L 374.769231 229.82656 
L 377.454545 226.86538 
L 380.13986 224.742916 
L 382.825175 223.510517 
L 385.51049 220.007311 
L 388.195804 219.664978 
L 390.881119 216.116127 
L 393.566434 212.036659 
L 396.251748 204.762085 
L 398.937063 214.986428 
L 401.622378 207.147004 
L 404.307692 209.463457 
L 406.993007 212.099421 
L 409.678322 205.965956 
L 412.363636 205.298407 
L 415.048951 203.044715 
L 417.734266 203.974719 
L 420.41958 202.759438 
L 423.104895 206.0116 
L 425.79021 198.83402 
L 428.475524 194.075593 
L 431.160839 184.433216 
L 433.846154 178.670612 
L 436.531469 178.9673 
L 439.216783 181.700258 
L 441.902098 179.092823 
L 444.587413 175.258694 
L 447.272727 178.294046 
L 449.958042 177.620791 
L 452.643357 176.508209 
L 455.328671 172.833836 
L 458.013986 177.152936 
L 460.699301 182.122469 
L 463.384615 182.430568 
L 466.06993 178.870306 
L 468.755245 186.846663 
L 471.440559 183.942539 
L 474.125874 188.409983 
L 476.811189 186.487213 
L 479.496503 189.334282 
L 482.181818 188.84931 
L 484.867133 188.592561 
L 487.552448 185.511565 
L 490.237762 190.275698 
L 492.923077 188.295872 
L 495.608392 188.472744 
L 498.293706 191.764846 
L 500.979021 191.576563 
L 503.664336 190.429747 
L 506.34965 188.261639 
L 509.034965 186.458686 
L 511.72028 187.788078 
L 514.405594 188.769433 
L 517.090909 190.635147 
L 519.776224 188.95201 
L 522.461538 189.551093 
L 527.832168 188.079061 
L 530.517483 188.073356 
L 533.202797 190.29852 
L 535.888112 191.38828 
L 538.573427 189.248699 
L 541.258741 188.061945 
L 543.944056 189.665204 
L 546.629371 188.929188 
L 549.314685 192.289756 
L 552 192.278345 
L 554.685315 194.589092 
L 557.370629 194.891486 
L 560.055944 193.853076 
L 562.741259 194.326637 
L 565.426573 195.24523 
L 568.111888 195.975541 
L 570.797203 196.974011 
L 573.482517 198.394693 
L 576.167832 198.754143 
L 578.853147 200.539979 
L 581.538462 200.243291 
L 586.909091 201.002129 
L 589.594406 201.150473 
L 592.27972 201.932133 
L 594.965035 200.768201 
L 597.65035 201.007834 
L 600.335664 201.498511 
L 603.020979 200.905134 
L 605.706294 201.618328 
L 608.391608 203.004776 
L 611.076923 201.8979 
L 613.762238 202.200294 
L 616.447552 201.481395 
L 619.132867 201.618328 
L 621.818182 201.595506 
L 621.818182 201.595506 
" style="fill:none;stroke:#7a68a6;stroke-linecap:square;stroke-width:2;"/>
   </g>
   <g id="line2d_30">
    <path clip-path="url(#p5477694139)" d="M 98.181818 237.552766 
L 103.552448 238.830102 
L 108.923077 239.697043 
L 114.293706 240.226735 
L 119.664336 240.4848 
L 125.034965 240.529755 
L 133.090909 240.309229 
L 143.832168 239.701198 
L 165.314685 238.339668 
L 176.055944 237.904899 
L 186.797203 237.742447 
L 197.538462 237.870505 
L 208.27972 238.267988 
L 219.020979 238.883101 
L 237.818182 240.249934 
L 253.93007 241.389559 
L 264.671329 241.954102 
L 272.727273 242.204721 
L 280.783217 242.264275 
L 288.839161 242.097925 
L 296.895105 241.675267 
L 304.951049 240.971056 
L 313.006993 239.965815 
L 321.062937 238.646331 
L 329.118881 237.006039 
L 337.174825 235.045291 
L 345.230769 232.771512 
L 353.286713 230.19924 
L 361.342657 227.350056 
L 369.398601 224.252396 
L 377.454545 220.941255 
L 388.195804 216.266242 
L 404.307692 208.93129 
L 420.41958 201.605568 
L 431.160839 196.966736 
L 439.216783 193.722279 
L 447.272727 190.748338 
L 452.643357 188.94584 
L 458.013986 187.307358 
L 463.384615 185.848923 
L 468.755245 184.585405 
L 474.125874 183.530275 
L 479.496503 182.695371 
L 484.867133 182.090639 
L 490.237762 181.723879 
L 495.608392 181.600466 
L 500.979021 181.723075 
L 506.34965 182.091386 
L 511.72028 182.701783 
L 517.090909 183.547044 
L 522.461538 184.616017 
L 527.832168 185.893293 
L 533.202797 187.358859 
L 541.258741 189.854203 
L 549.314685 192.608726 
L 568.111888 199.213752 
L 573.482517 200.892698 
L 578.853147 202.351782 
L 584.223776 203.508351 
L 589.594406 204.270964 
L 592.27972 204.473447 
L 594.965035 204.538938 
L 597.65035 204.453329 
L 600.335664 204.201877 
L 603.020979 203.769189 
L 605.706294 203.139203 
L 608.391608 202.295174 
L 611.076923 201.219662 
L 613.762238 199.89451 
L 616.447552 198.300835 
L 619.132867 196.419005 
L 621.818182 194.228628 
L 621.818182 194.228628 
" style="fill:none;stroke:#7a68a6;stroke-dasharray:7.4,3.2;stroke-dashoffset:0;stroke-width:2;"/>
   </g>
   <g id="patch_3">
    <path d="M 72 267.054545 
L 72 57.6 
" style="fill:none;stroke:#bcbcbc;stroke-linecap:square;stroke-linejoin:miter;stroke-width:0.8;"/>
   </g>
   <g id="patch_4">
    <path d="M 648 267.054545 
L 648 57.6 
" style="fill:none;stroke:#bcbcbc;stroke-linecap:square;stroke-linejoin:miter;stroke-width:0.8;"/>
   </g>
   <g id="patch_5">
    <path d="M 72 267.054545 
L 648 267.054545 
" style="fill:none;stroke:#bcbcbc;stroke-linecap:square;stroke-linejoin:miter;stroke-width:0.8;"/>
   </g>
   <g id="patch_6">
    <path d="M 72 57.6 
L 648 57.6 
" style="fill:none;stroke:#bcbcbc;stroke-linecap:square;stroke-linejoin:miter;stroke-width:0.8;"/>
   </g>
   <g id="text_7">
    <!-- https://opendata.ecdc.europa.eu/covid19/casedistribution/json/ -->
    <defs>
     <path d="M 54.890625 33.015625 
L 54.890625 0 
L 45.90625 0 
L 45.90625 32.71875 
Q 45.90625 40.484375 42.875 44.328125 
Q 39.84375 48.1875 33.796875 48.1875 
Q 26.515625 48.1875 22.3125 43.546875 
Q 18.109375 38.921875 18.109375 30.90625 
L 18.109375 0 
L 9.078125 0 
L 9.078125 75.984375 
L 18.109375 75.984375 
L 18.109375 46.1875 
Q 21.34375 51.125 25.703125 53.5625 
Q 30.078125 56 35.796875 56 
Q 45.21875 56 50.046875 50.171875 
Q 54.890625 44.34375 54.890625 33.015625 
z
" id="DejaVuSans-104"/>
     <path d="M 18.3125 70.21875 
L 18.3125 54.6875 
L 36.8125 54.6875 
L 36.8125 47.703125 
L 18.3125 47.703125 
L 18.3125 18.015625 
Q 18.3125 11.328125 20.140625 9.421875 
Q 21.96875 7.515625 27.59375 7.515625 
L 36.8125 7.515625 
L 36.8125 0 
L 27.59375 0 
Q 17.1875 0 13.234375 3.875 
Q 9.28125 7.765625 9.28125 18.015625 
L 9.28125 47.703125 
L 2.6875 47.703125 
L 2.6875 54.6875 
L 9.28125 54.6875 
L 9.28125 70.21875 
z
" id="DejaVuSans-116"/>
     <path d="M 11.71875 12.40625 
L 22.015625 12.40625 
L 22.015625 0 
L 11.71875 0 
z
M 11.71875 51.703125 
L 22.015625 51.703125 
L 22.015625 39.3125 
L 11.71875 39.3125 
z
" id="DejaVuSans-58"/>
     <path d="M 25.390625 72.90625 
L 33.6875 72.90625 
L 8.296875 -9.28125 
L 0 -9.28125 
z
" id="DejaVuSans-47"/>
     <path d="M 45.40625 46.390625 
L 45.40625 75.984375 
L 54.390625 75.984375 
L 54.390625 0 
L 45.40625 0 
L 45.40625 8.203125 
Q 42.578125 3.328125 38.25 0.953125 
Q 33.9375 -1.421875 27.875 -1.421875 
Q 17.96875 -1.421875 11.734375 6.484375 
Q 5.515625 14.40625 5.515625 27.296875 
Q 5.515625 40.1875 11.734375 48.09375 
Q 17.96875 56 27.875 56 
Q 33.9375 56 38.25 53.625 
Q 42.578125 51.265625 45.40625 46.390625 
z
M 14.796875 27.296875 
Q 14.796875 17.390625 18.875 11.75 
Q 22.953125 6.109375 30.078125 6.109375 
Q 37.203125 6.109375 41.296875 11.75 
Q 45.40625 17.390625 45.40625 27.296875 
Q 45.40625 37.203125 41.296875 42.84375 
Q 37.203125 48.484375 30.078125 48.484375 
Q 22.953125 48.484375 18.875 42.84375 
Q 14.796875 37.203125 14.796875 27.296875 
z
" id="DejaVuSans-100"/>
     <path d="M 10.6875 12.40625 
L 21 12.40625 
L 21 0 
L 10.6875 0 
z
" id="DejaVuSans-46"/>
     <path d="M 8.5 21.578125 
L 8.5 54.6875 
L 17.484375 54.6875 
L 17.484375 21.921875 
Q 17.484375 14.15625 20.5 10.265625 
Q 23.53125 6.390625 29.59375 6.390625 
Q 36.859375 6.390625 41.078125 11.03125 
Q 45.3125 15.671875 45.3125 23.6875 
L 45.3125 54.6875 
L 54.296875 54.6875 
L 54.296875 0 
L 45.3125 0 
L 45.3125 8.40625 
Q 42.046875 3.421875 37.71875 1 
Q 33.40625 -1.421875 27.6875 -1.421875 
Q 18.265625 -1.421875 13.375 4.4375 
Q 8.5 10.296875 8.5 21.578125 
z
M 31.109375 56 
z
" id="DejaVuSans-117"/>
     <path d="M 2.984375 54.6875 
L 12.5 54.6875 
L 29.59375 8.796875 
L 46.6875 54.6875 
L 56.203125 54.6875 
L 35.6875 0 
L 23.484375 0 
z
" id="DejaVuSans-118"/>
     <path d="M 10.984375 1.515625 
L 10.984375 10.5 
Q 14.703125 8.734375 18.5 7.8125 
Q 22.3125 6.890625 25.984375 6.890625 
Q 35.75 6.890625 40.890625 13.453125 
Q 46.046875 20.015625 46.78125 33.40625 
Q 43.953125 29.203125 39.59375 26.953125 
Q 35.25 24.703125 29.984375 24.703125 
Q 19.046875 24.703125 12.671875 31.3125 
Q 6.296875 37.9375 6.296875 49.421875 
Q 6.296875 60.640625 12.9375 67.421875 
Q 19.578125 74.21875 30.609375 74.21875 
Q 43.265625 74.21875 49.921875 64.515625 
Q 56.59375 54.828125 56.59375 36.375 
Q 56.59375 19.140625 48.40625 8.859375 
Q 40.234375 -1.421875 26.421875 -1.421875 
Q 22.703125 -1.421875 18.890625 -0.6875 
Q 15.09375 0.046875 10.984375 1.515625 
z
M 30.609375 32.421875 
Q 37.25 32.421875 41.125 36.953125 
Q 45.015625 41.5 45.015625 49.421875 
Q 45.015625 57.28125 41.125 61.84375 
Q 37.25 66.40625 30.609375 66.40625 
Q 23.96875 66.40625 20.09375 61.84375 
Q 16.21875 57.28125 16.21875 49.421875 
Q 16.21875 41.5 20.09375 36.953125 
Q 23.96875 32.421875 30.609375 32.421875 
z
" id="DejaVuSans-57"/>
     <path d="M 48.6875 27.296875 
Q 48.6875 37.203125 44.609375 42.84375 
Q 40.53125 48.484375 33.40625 48.484375 
Q 26.265625 48.484375 22.1875 42.84375 
Q 18.109375 37.203125 18.109375 27.296875 
Q 18.109375 17.390625 22.1875 11.75 
Q 26.265625 6.109375 33.40625 6.109375 
Q 40.53125 6.109375 44.609375 11.75 
Q 48.6875 17.390625 48.6875 27.296875 
z
M 18.109375 46.390625 
Q 20.953125 51.265625 25.265625 53.625 
Q 29.59375 56 35.59375 56 
Q 45.5625 56 51.78125 48.09375 
Q 58.015625 40.1875 58.015625 27.296875 
Q 58.015625 14.40625 51.78125 6.484375 
Q 45.5625 -1.421875 35.59375 -1.421875 
Q 29.59375 -1.421875 25.265625 0.953125 
Q 20.953125 3.328125 18.109375 8.203125 
L 18.109375 0 
L 9.078125 0 
L 9.078125 75.984375 
L 18.109375 75.984375 
z
" id="DejaVuSans-98"/>
     <path d="M 9.421875 54.6875 
L 18.40625 54.6875 
L 18.40625 -0.984375 
Q 18.40625 -11.421875 14.421875 -16.109375 
Q 10.453125 -20.796875 1.609375 -20.796875 
L -1.8125 -20.796875 
L -1.8125 -13.1875 
L 0.59375 -13.1875 
Q 5.71875 -13.1875 7.5625 -10.8125 
Q 9.421875 -8.453125 9.421875 -0.984375 
z
M 9.421875 75.984375 
L 18.40625 75.984375 
L 18.40625 64.59375 
L 9.421875 64.59375 
z
" id="DejaVuSans-106"/>
    </defs>
    <g transform="translate(131.686875 51.6)scale(0.144 -0.144)">
     <use xlink:href="#DejaVuSans-104"/>
     <use x="63.378906" xlink:href="#DejaVuSans-116"/>
     <use x="102.587891" xlink:href="#DejaVuSans-116"/>
     <use x="141.796875" xlink:href="#DejaVuSans-112"/>
     <use x="205.273438" xlink:href="#DejaVuSans-115"/>
     <use x="257.373047" xlink:href="#DejaVuSans-58"/>
     <use x="291.064453" xlink:href="#DejaVuSans-47"/>
     <use x="324.755859" xlink:href="#DejaVuSans-47"/>
     <use x="358.447266" xlink:href="#DejaVuSans-111"/>
     <use x="419.628906" xlink:href="#DejaVuSans-112"/>
     <use x="483.105469" xlink:href="#DejaVuSans-101"/>
     <use x="544.628906" xlink:href="#DejaVuSans-110"/>
     <use x="608.007812" xlink:href="#DejaVuSans-100"/>
     <use x="671.484375" xlink:href="#DejaVuSans-97"/>
     <use x="732.763672" xlink:href="#DejaVuSans-116"/>
     <use x="771.972656" xlink:href="#DejaVuSans-97"/>
     <use x="833.251953" xlink:href="#DejaVuSans-46"/>
     <use x="865.039062" xlink:href="#DejaVuSans-101"/>
     <use x="926.5625" xlink:href="#DejaVuSans-99"/>
     <use x="981.542969" xlink:href="#DejaVuSans-100"/>
     <use x="1045.019531" xlink:href="#DejaVuSans-99"/>
     <use x="1100" xlink:href="#DejaVuSans-46"/>
     <use x="1131.787109" xlink:href="#DejaVuSans-101"/>
     <use x="1193.310547" xlink:href="#DejaVuSans-117"/>
     <use x="1256.689453" xlink:href="#DejaVuSans-114"/>
     <use x="1295.552734" xlink:href="#DejaVuSans-111"/>
     <use x="1356.734375" xlink:href="#DejaVuSans-112"/>
     <use x="1420.210938" xlink:href="#DejaVuSans-97"/>
     <use x="1481.490234" xlink:href="#DejaVuSans-46"/>
     <use x="1513.277344" xlink:href="#DejaVuSans-101"/>
     <use x="1574.800781" xlink:href="#DejaVuSans-117"/>
     <use x="1638.179688" xlink:href="#DejaVuSans-47"/>
     <use x="1671.871094" xlink:href="#DejaVuSans-99"/>
     <use x="1726.851562" xlink:href="#DejaVuSans-111"/>
     <use x="1788.033203" xlink:href="#DejaVuSans-118"/>
     <use x="1847.212891" xlink:href="#DejaVuSans-105"/>
     <use x="1874.996094" xlink:href="#DejaVuSans-100"/>
     <use x="1938.472656" xlink:href="#DejaVuSans-49"/>
     <use x="2002.095703" xlink:href="#DejaVuSans-57"/>
     <use x="2065.71875" xlink:href="#DejaVuSans-47"/>
     <use x="2099.410156" xlink:href="#DejaVuSans-99"/>
     <use x="2154.390625" xlink:href="#DejaVuSans-97"/>
     <use x="2215.669922" xlink:href="#DejaVuSans-115"/>
     <use x="2267.769531" xlink:href="#DejaVuSans-101"/>
     <use x="2329.292969" xlink:href="#DejaVuSans-100"/>
     <use x="2392.769531" xlink:href="#DejaVuSans-105"/>
     <use x="2420.552734" xlink:href="#DejaVuSans-115"/>
     <use x="2472.652344" xlink:href="#DejaVuSans-116"/>
     <use x="2511.861328" xlink:href="#DejaVuSans-114"/>
     <use x="2552.974609" xlink:href="#DejaVuSans-105"/>
     <use x="2580.757812" xlink:href="#DejaVuSans-98"/>
     <use x="2644.234375" xlink:href="#DejaVuSans-117"/>
     <use x="2707.613281" xlink:href="#DejaVuSans-116"/>
     <use x="2746.822266" xlink:href="#DejaVuSans-105"/>
     <use x="2774.605469" xlink:href="#DejaVuSans-111"/>
     <use x="2835.787109" xlink:href="#DejaVuSans-110"/>
     <use x="2899.166016" xlink:href="#DejaVuSans-47"/>
     <use x="2932.857422" xlink:href="#DejaVuSans-106"/>
     <use x="2960.640625" xlink:href="#DejaVuSans-115"/>
     <use x="3012.740234" xlink:href="#DejaVuSans-111"/>
     <use x="3073.921875" xlink:href="#DejaVuSans-110"/>
     <use x="3137.300781" xlink:href="#DejaVuSans-47"/>
    </g>
   </g>
   <g id="legend_1">
    <g id="patch_7">
     <path d="M 79 109.634375 
L 125.434375 109.634375 
Q 127.434375 109.634375 127.434375 107.634375 
L 127.434375 64.6 
Q 127.434375 62.6 125.434375 62.6 
L 79 62.6 
Q 77 62.6 77 64.6 
L 77 107.634375 
Q 77 109.634375 79 109.634375 
z
" style="fill:#eeeeee;opacity:0.8;stroke:#cccccc;stroke-linejoin:miter;stroke-width:0.5;"/>
    </g>
    <g id="line2d_31">
     <path d="M 81 70.698438 
L 101 70.698438 
" style="fill:none;stroke:#348abd;stroke-linecap:square;stroke-width:2;"/>
    </g>
    <g id="line2d_32"/>
    <g id="text_8">
     <!-- BG -->
     <defs>
      <path d="M 19.671875 34.8125 
L 19.671875 8.109375 
L 35.5 8.109375 
Q 43.453125 8.109375 47.28125 11.40625 
Q 51.125 14.703125 51.125 21.484375 
Q 51.125 28.328125 47.28125 31.5625 
Q 43.453125 34.8125 35.5 34.8125 
z
M 19.671875 64.796875 
L 19.671875 42.828125 
L 34.28125 42.828125 
Q 41.5 42.828125 45.03125 45.53125 
Q 48.578125 48.25 48.578125 53.8125 
Q 48.578125 59.328125 45.03125 62.0625 
Q 41.5 64.796875 34.28125 64.796875 
z
M 9.8125 72.90625 
L 35.015625 72.90625 
Q 46.296875 72.90625 52.390625 68.21875 
Q 58.5 63.53125 58.5 54.890625 
Q 58.5 48.1875 55.375 44.234375 
Q 52.25 40.28125 46.1875 39.3125 
Q 53.46875 37.75 57.5 32.78125 
Q 61.53125 27.828125 61.53125 20.40625 
Q 61.53125 10.640625 54.890625 5.3125 
Q 48.25 0 35.984375 0 
L 9.8125 0 
z
" id="DejaVuSans-66"/>
      <path d="M 59.515625 10.40625 
L 59.515625 29.984375 
L 43.40625 29.984375 
L 43.40625 38.09375 
L 69.28125 38.09375 
L 69.28125 6.78125 
Q 63.578125 2.734375 56.6875 0.65625 
Q 49.8125 -1.421875 42 -1.421875 
Q 24.90625 -1.421875 15.25 8.5625 
Q 5.609375 18.5625 5.609375 36.375 
Q 5.609375 54.25 15.25 64.234375 
Q 24.90625 74.21875 42 74.21875 
Q 49.125 74.21875 55.546875 72.453125 
Q 61.96875 70.703125 67.390625 67.28125 
L 67.390625 56.78125 
Q 61.921875 61.421875 55.765625 63.765625 
Q 49.609375 66.109375 42.828125 66.109375 
Q 29.4375 66.109375 22.71875 58.640625 
Q 16.015625 51.171875 16.015625 36.375 
Q 16.015625 21.625 22.71875 14.15625 
Q 29.4375 6.6875 42.828125 6.6875 
Q 48.046875 6.6875 52.140625 7.59375 
Q 56.25 8.5 59.515625 10.40625 
z
" id="DejaVuSans-71"/>
     </defs>
     <g transform="translate(109 74.198438)scale(0.1 -0.1)">
      <use xlink:href="#DejaVuSans-66"/>
      <use x="66.853516" xlink:href="#DejaVuSans-71"/>
     </g>
    </g>
    <g id="line2d_33">
     <path d="M 81 85.376563 
L 101 85.376563 
" style="fill:none;stroke:#a60628;stroke-linecap:square;stroke-width:2;"/>
    </g>
    <g id="line2d_34"/>
    <g id="text_9">
     <!-- US -->
     <defs>
      <path d="M 8.6875 72.90625 
L 18.609375 72.90625 
L 18.609375 28.609375 
Q 18.609375 16.890625 22.84375 11.734375 
Q 27.09375 6.59375 36.625 6.59375 
Q 46.09375 6.59375 50.34375 11.734375 
Q 54.59375 16.890625 54.59375 28.609375 
L 54.59375 72.90625 
L 64.5 72.90625 
L 64.5 27.390625 
Q 64.5 13.140625 57.4375 5.859375 
Q 50.390625 -1.421875 36.625 -1.421875 
Q 22.796875 -1.421875 15.734375 5.859375 
Q 8.6875 13.140625 8.6875 27.390625 
z
" id="DejaVuSans-85"/>
      <path d="M 53.515625 70.515625 
L 53.515625 60.890625 
Q 47.90625 63.578125 42.921875 64.890625 
Q 37.9375 66.21875 33.296875 66.21875 
Q 25.25 66.21875 20.875 63.09375 
Q 16.5 59.96875 16.5 54.203125 
Q 16.5 49.359375 19.40625 46.890625 
Q 22.3125 44.4375 30.421875 42.921875 
L 36.375 41.703125 
Q 47.40625 39.59375 52.65625 34.296875 
Q 57.90625 29 57.90625 20.125 
Q 57.90625 9.515625 50.796875 4.046875 
Q 43.703125 -1.421875 29.984375 -1.421875 
Q 24.8125 -1.421875 18.96875 -0.25 
Q 13.140625 0.921875 6.890625 3.21875 
L 6.890625 13.375 
Q 12.890625 10.015625 18.65625 8.296875 
Q 24.421875 6.59375 29.984375 6.59375 
Q 38.421875 6.59375 43.015625 9.90625 
Q 47.609375 13.234375 47.609375 19.390625 
Q 47.609375 24.75 44.3125 27.78125 
Q 41.015625 30.8125 33.5 32.328125 
L 27.484375 33.5 
Q 16.453125 35.6875 11.515625 40.375 
Q 6.59375 45.0625 6.59375 53.421875 
Q 6.59375 63.09375 13.40625 68.65625 
Q 20.21875 74.21875 32.171875 74.21875 
Q 37.3125 74.21875 42.625 73.28125 
Q 47.953125 72.359375 53.515625 70.515625 
z
" id="DejaVuSans-83"/>
     </defs>
     <g transform="translate(109 88.876563)scale(0.1 -0.1)">
      <use xlink:href="#DejaVuSans-85"/>
      <use x="73.193359" xlink:href="#DejaVuSans-83"/>
     </g>
    </g>
    <g id="line2d_35">
     <path d="M 81 100.054688 
L 101 100.054688 
" style="fill:none;stroke:#7a68a6;stroke-linecap:square;stroke-width:2;"/>
    </g>
    <g id="line2d_36"/>
    <g id="text_10">
     <!-- RU -->
     <defs>
      <path d="M 44.390625 34.1875 
Q 47.5625 33.109375 50.5625 29.59375 
Q 53.5625 26.078125 56.59375 19.921875 
L 66.609375 0 
L 56 0 
L 46.6875 18.703125 
Q 43.0625 26.03125 39.671875 28.421875 
Q 36.28125 30.8125 30.421875 30.8125 
L 19.671875 30.8125 
L 19.671875 0 
L 9.8125 0 
L 9.8125 72.90625 
L 32.078125 72.90625 
Q 44.578125 72.90625 50.734375 67.671875 
Q 56.890625 62.453125 56.890625 51.90625 
Q 56.890625 45.015625 53.6875 40.46875 
Q 50.484375 35.9375 44.390625 34.1875 
z
M 19.671875 64.796875 
L 19.671875 38.921875 
L 32.078125 38.921875 
Q 39.203125 38.921875 42.84375 42.21875 
Q 46.484375 45.515625 46.484375 51.90625 
Q 46.484375 58.296875 42.84375 61.546875 
Q 39.203125 64.796875 32.078125 64.796875 
z
" id="DejaVuSans-82"/>
     </defs>
     <g transform="translate(109 103.554688)scale(0.1 -0.1)">
      <use xlink:href="#DejaVuSans-82"/>
      <use x="69.482422" xlink:href="#DejaVuSans-85"/>
     </g>
    </g>
   </g>
  </g>
  <g id="axes_2">
   <g id="patch_8">
    <path d="M 72 518.4 
L 648 518.4 
L 648 308.945455 
L 72 308.945455 
z
" style="fill:#eeeeee;"/>
   </g>
   <g id="matplotlib.axis_3">
    <g id="xtick_8">
     <g id="line2d_37">
      <path clip-path="url(#p7112dd1189)" d="M 100.867133 518.4 
L 100.867133 308.945455 
" style="fill:none;stroke:#333333;stroke-dasharray:1.85,0.8;stroke-dashoffset:0;stroke-width:0.5;"/>
     </g>
     <g id="line2d_38">
      <g>
       <use style="stroke:#000000;stroke-width:0.8;" x="100.867133" xlink:href="#m65e6e2d3a0" y="518.4"/>
      </g>
     </g>
     <g id="text_11">
      <!-- 2020-01 -->
      <defs>
       <path d="M 4.890625 31.390625 
L 31.203125 31.390625 
L 31.203125 23.390625 
L 4.890625 23.390625 
z
" id="DejaVuSans-45"/>
      </defs>
      <g transform="translate(79.975727 529.498438)scale(0.1 -0.1)">
       <use xlink:href="#DejaVuSans-50"/>
       <use x="63.623047" xlink:href="#DejaVuSans-48"/>
       <use x="127.246094" xlink:href="#DejaVuSans-50"/>
       <use x="190.869141" xlink:href="#DejaVuSans-48"/>
       <use x="254.492188" xlink:href="#DejaVuSans-45"/>
       <use x="290.576172" xlink:href="#DejaVuSans-48"/>
       <use x="354.199219" xlink:href="#DejaVuSans-49"/>
      </g>
     </g>
    </g>
    <g id="xtick_9">
     <g id="line2d_39">
      <path clip-path="url(#p7112dd1189)" d="M 184.111888 518.4 
L 184.111888 308.945455 
" style="fill:none;stroke:#333333;stroke-dasharray:1.85,0.8;stroke-dashoffset:0;stroke-width:0.5;"/>
     </g>
     <g id="line2d_40">
      <g>
       <use style="stroke:#000000;stroke-width:0.8;" x="184.111888" xlink:href="#m65e6e2d3a0" y="518.4"/>
      </g>
     </g>
     <g id="text_12">
      <!-- 2020-02 -->
      <g transform="translate(163.220482 529.498438)scale(0.1 -0.1)">
       <use xlink:href="#DejaVuSans-50"/>
       <use x="63.623047" xlink:href="#DejaVuSans-48"/>
       <use x="127.246094" xlink:href="#DejaVuSans-50"/>
       <use x="190.869141" xlink:href="#DejaVuSans-48"/>
       <use x="254.492188" xlink:href="#DejaVuSans-45"/>
       <use x="290.576172" xlink:href="#DejaVuSans-48"/>
       <use x="354.199219" xlink:href="#DejaVuSans-50"/>
      </g>
     </g>
    </g>
    <g id="xtick_10">
     <g id="line2d_41">
      <path clip-path="url(#p7112dd1189)" d="M 261.986014 518.4 
L 261.986014 308.945455 
" style="fill:none;stroke:#333333;stroke-dasharray:1.85,0.8;stroke-dashoffset:0;stroke-width:0.5;"/>
     </g>
     <g id="line2d_42">
      <g>
       <use style="stroke:#000000;stroke-width:0.8;" x="261.986014" xlink:href="#m65e6e2d3a0" y="518.4"/>
      </g>
     </g>
     <g id="text_13">
      <!-- 2020-03 -->
      <defs>
       <path d="M 40.578125 39.3125 
Q 47.65625 37.796875 51.625 33 
Q 55.609375 28.21875 55.609375 21.1875 
Q 55.609375 10.40625 48.1875 4.484375 
Q 40.765625 -1.421875 27.09375 -1.421875 
Q 22.515625 -1.421875 17.65625 -0.515625 
Q 12.796875 0.390625 7.625 2.203125 
L 7.625 11.71875 
Q 11.71875 9.328125 16.59375 8.109375 
Q 21.484375 6.890625 26.8125 6.890625 
Q 36.078125 6.890625 40.9375 10.546875 
Q 45.796875 14.203125 45.796875 21.1875 
Q 45.796875 27.640625 41.28125 31.265625 
Q 36.765625 34.90625 28.71875 34.90625 
L 20.21875 34.90625 
L 20.21875 43.015625 
L 29.109375 43.015625 
Q 36.375 43.015625 40.234375 45.921875 
Q 44.09375 48.828125 44.09375 54.296875 
Q 44.09375 59.90625 40.109375 62.90625 
Q 36.140625 65.921875 28.71875 65.921875 
Q 24.65625 65.921875 20.015625 65.03125 
Q 15.375 64.15625 9.8125 62.3125 
L 9.8125 71.09375 
Q 15.4375 72.65625 20.34375 73.4375 
Q 25.25 74.21875 29.59375 74.21875 
Q 40.828125 74.21875 47.359375 69.109375 
Q 53.90625 64.015625 53.90625 55.328125 
Q 53.90625 49.265625 50.4375 45.09375 
Q 46.96875 40.921875 40.578125 39.3125 
z
" id="DejaVuSans-51"/>
      </defs>
      <g transform="translate(241.094608 529.498438)scale(0.1 -0.1)">
       <use xlink:href="#DejaVuSans-50"/>
       <use x="63.623047" xlink:href="#DejaVuSans-48"/>
       <use x="127.246094" xlink:href="#DejaVuSans-50"/>
       <use x="190.869141" xlink:href="#DejaVuSans-48"/>
       <use x="254.492188" xlink:href="#DejaVuSans-45"/>
       <use x="290.576172" xlink:href="#DejaVuSans-48"/>
       <use x="354.199219" xlink:href="#DejaVuSans-51"/>
      </g>
     </g>
    </g>
    <g id="xtick_11">
     <g id="line2d_43">
      <path clip-path="url(#p7112dd1189)" d="M 345.230769 518.4 
L 345.230769 308.945455 
" style="fill:none;stroke:#333333;stroke-dasharray:1.85,0.8;stroke-dashoffset:0;stroke-width:0.5;"/>
     </g>
     <g id="line2d_44">
      <g>
       <use style="stroke:#000000;stroke-width:0.8;" x="345.230769" xlink:href="#m65e6e2d3a0" y="518.4"/>
      </g>
     </g>
     <g id="text_14">
      <!-- 2020-04 -->
      <defs>
       <path d="M 37.796875 64.3125 
L 12.890625 25.390625 
L 37.796875 25.390625 
z
M 35.203125 72.90625 
L 47.609375 72.90625 
L 47.609375 25.390625 
L 58.015625 25.390625 
L 58.015625 17.1875 
L 47.609375 17.1875 
L 47.609375 0 
L 37.796875 0 
L 37.796875 17.1875 
L 4.890625 17.1875 
L 4.890625 26.703125 
z
" id="DejaVuSans-52"/>
      </defs>
      <g transform="translate(324.339363 529.498438)scale(0.1 -0.1)">
       <use xlink:href="#DejaVuSans-50"/>
       <use x="63.623047" xlink:href="#DejaVuSans-48"/>
       <use x="127.246094" xlink:href="#DejaVuSans-50"/>
       <use x="190.869141" xlink:href="#DejaVuSans-48"/>
       <use x="254.492188" xlink:href="#DejaVuSans-45"/>
       <use x="290.576172" xlink:href="#DejaVuSans-48"/>
       <use x="354.199219" xlink:href="#DejaVuSans-52"/>
      </g>
     </g>
    </g>
    <g id="xtick_12">
     <g id="line2d_45">
      <path clip-path="url(#p7112dd1189)" d="M 425.79021 518.4 
L 425.79021 308.945455 
" style="fill:none;stroke:#333333;stroke-dasharray:1.85,0.8;stroke-dashoffset:0;stroke-width:0.5;"/>
     </g>
     <g id="line2d_46">
      <g>
       <use style="stroke:#000000;stroke-width:0.8;" x="425.79021" xlink:href="#m65e6e2d3a0" y="518.4"/>
      </g>
     </g>
     <g id="text_15">
      <!-- 2020-05 -->
      <g transform="translate(404.898804 529.498438)scale(0.1 -0.1)">
       <use xlink:href="#DejaVuSans-50"/>
       <use x="63.623047" xlink:href="#DejaVuSans-48"/>
       <use x="127.246094" xlink:href="#DejaVuSans-50"/>
       <use x="190.869141" xlink:href="#DejaVuSans-48"/>
       <use x="254.492188" xlink:href="#DejaVuSans-45"/>
       <use x="290.576172" xlink:href="#DejaVuSans-48"/>
       <use x="354.199219" xlink:href="#DejaVuSans-53"/>
      </g>
     </g>
    </g>
    <g id="xtick_13">
     <g id="line2d_47">
      <path clip-path="url(#p7112dd1189)" d="M 509.034965 518.4 
L 509.034965 308.945455 
" style="fill:none;stroke:#333333;stroke-dasharray:1.85,0.8;stroke-dashoffset:0;stroke-width:0.5;"/>
     </g>
     <g id="line2d_48">
      <g>
       <use style="stroke:#000000;stroke-width:0.8;" x="509.034965" xlink:href="#m65e6e2d3a0" y="518.4"/>
      </g>
     </g>
     <g id="text_16">
      <!-- 2020-06 -->
      <defs>
       <path d="M 33.015625 40.375 
Q 26.375 40.375 22.484375 35.828125 
Q 18.609375 31.296875 18.609375 23.390625 
Q 18.609375 15.53125 22.484375 10.953125 
Q 26.375 6.390625 33.015625 6.390625 
Q 39.65625 6.390625 43.53125 10.953125 
Q 47.40625 15.53125 47.40625 23.390625 
Q 47.40625 31.296875 43.53125 35.828125 
Q 39.65625 40.375 33.015625 40.375 
z
M 52.59375 71.296875 
L 52.59375 62.3125 
Q 48.875 64.0625 45.09375 64.984375 
Q 41.3125 65.921875 37.59375 65.921875 
Q 27.828125 65.921875 22.671875 59.328125 
Q 17.53125 52.734375 16.796875 39.40625 
Q 19.671875 43.65625 24.015625 45.921875 
Q 28.375 48.1875 33.59375 48.1875 
Q 44.578125 48.1875 50.953125 41.515625 
Q 57.328125 34.859375 57.328125 23.390625 
Q 57.328125 12.15625 50.6875 5.359375 
Q 44.046875 -1.421875 33.015625 -1.421875 
Q 20.359375 -1.421875 13.671875 8.265625 
Q 6.984375 17.96875 6.984375 36.375 
Q 6.984375 53.65625 15.1875 63.9375 
Q 23.390625 74.21875 37.203125 74.21875 
Q 40.921875 74.21875 44.703125 73.484375 
Q 48.484375 72.75 52.59375 71.296875 
z
" id="DejaVuSans-54"/>
      </defs>
      <g transform="translate(488.143559 529.498438)scale(0.1 -0.1)">
       <use xlink:href="#DejaVuSans-50"/>
       <use x="63.623047" xlink:href="#DejaVuSans-48"/>
       <use x="127.246094" xlink:href="#DejaVuSans-50"/>
       <use x="190.869141" xlink:href="#DejaVuSans-48"/>
       <use x="254.492188" xlink:href="#DejaVuSans-45"/>
       <use x="290.576172" xlink:href="#DejaVuSans-48"/>
       <use x="354.199219" xlink:href="#DejaVuSans-54"/>
      </g>
     </g>
    </g>
    <g id="xtick_14">
     <g id="line2d_49">
      <path clip-path="url(#p7112dd1189)" d="M 589.594406 518.4 
L 589.594406 308.945455 
" style="fill:none;stroke:#333333;stroke-dasharray:1.85,0.8;stroke-dashoffset:0;stroke-width:0.5;"/>
     </g>
     <g id="line2d_50">
      <g>
       <use style="stroke:#000000;stroke-width:0.8;" x="589.594406" xlink:href="#m65e6e2d3a0" y="518.4"/>
      </g>
     </g>
     <g id="text_17">
      <!-- 2020-07 -->
      <defs>
       <path d="M 8.203125 72.90625 
L 55.078125 72.90625 
L 55.078125 68.703125 
L 28.609375 0 
L 18.3125 0 
L 43.21875 64.59375 
L 8.203125 64.59375 
z
" id="DejaVuSans-55"/>
      </defs>
      <g transform="translate(568.702999 529.498438)scale(0.1 -0.1)">
       <use xlink:href="#DejaVuSans-50"/>
       <use x="63.623047" xlink:href="#DejaVuSans-48"/>
       <use x="127.246094" xlink:href="#DejaVuSans-50"/>
       <use x="190.869141" xlink:href="#DejaVuSans-48"/>
       <use x="254.492188" xlink:href="#DejaVuSans-45"/>
       <use x="290.576172" xlink:href="#DejaVuSans-48"/>
       <use x="354.199219" xlink:href="#DejaVuSans-55"/>
      </g>
     </g>
    </g>
   </g>
   <g id="matplotlib.axis_4">
    <g id="ytick_6">
     <g id="line2d_51">
      <path clip-path="url(#p7112dd1189)" d="M 72 491.786222 
L 648 491.786222 
" style="fill:none;stroke:#333333;stroke-dasharray:1.85,0.8;stroke-dashoffset:0;stroke-width:0.5;"/>
     </g>
     <g id="line2d_52">
      <g>
       <use style="stroke:#000000;stroke-width:0.8;" x="72" xlink:href="#me11077ff4b" y="491.786222"/>
      </g>
     </g>
     <g id="text_18">
      <!-- 0.0 -->
      <g transform="translate(52.596875 495.585441)scale(0.1 -0.1)">
       <use xlink:href="#DejaVuSans-48"/>
       <use x="63.623047" xlink:href="#DejaVuSans-46"/>
       <use x="95.410156" xlink:href="#DejaVuSans-48"/>
      </g>
     </g>
    </g>
    <g id="ytick_7">
     <g id="line2d_53">
      <path clip-path="url(#p7112dd1189)" d="M 72 462.852798 
L 648 462.852798 
" style="fill:none;stroke:#333333;stroke-dasharray:1.85,0.8;stroke-dashoffset:0;stroke-width:0.5;"/>
     </g>
     <g id="line2d_54">
      <g>
       <use style="stroke:#000000;stroke-width:0.8;" x="72" xlink:href="#me11077ff4b" y="462.852798"/>
      </g>
     </g>
     <g id="text_19">
      <!-- 2.5 -->
      <g transform="translate(52.596875 466.652016)scale(0.1 -0.1)">
       <use xlink:href="#DejaVuSans-50"/>
       <use x="63.623047" xlink:href="#DejaVuSans-46"/>
       <use x="95.410156" xlink:href="#DejaVuSans-53"/>
      </g>
     </g>
    </g>
    <g id="ytick_8">
     <g id="line2d_55">
      <path clip-path="url(#p7112dd1189)" d="M 72 433.919373 
L 648 433.919373 
" style="fill:none;stroke:#333333;stroke-dasharray:1.85,0.8;stroke-dashoffset:0;stroke-width:0.5;"/>
     </g>
     <g id="line2d_56">
      <g>
       <use style="stroke:#000000;stroke-width:0.8;" x="72" xlink:href="#me11077ff4b" y="433.919373"/>
      </g>
     </g>
     <g id="text_20">
      <!-- 5.0 -->
      <g transform="translate(52.596875 437.718592)scale(0.1 -0.1)">
       <use xlink:href="#DejaVuSans-53"/>
       <use x="63.623047" xlink:href="#DejaVuSans-46"/>
       <use x="95.410156" xlink:href="#DejaVuSans-48"/>
      </g>
     </g>
    </g>
    <g id="ytick_9">
     <g id="line2d_57">
      <path clip-path="url(#p7112dd1189)" d="M 72 404.985949 
L 648 404.985949 
" style="fill:none;stroke:#333333;stroke-dasharray:1.85,0.8;stroke-dashoffset:0;stroke-width:0.5;"/>
     </g>
     <g id="line2d_58">
      <g>
       <use style="stroke:#000000;stroke-width:0.8;" x="72" xlink:href="#me11077ff4b" y="404.985949"/>
      </g>
     </g>
     <g id="text_21">
      <!-- 7.5 -->
      <g transform="translate(52.596875 408.785167)scale(0.1 -0.1)">
       <use xlink:href="#DejaVuSans-55"/>
       <use x="63.623047" xlink:href="#DejaVuSans-46"/>
       <use x="95.410156" xlink:href="#DejaVuSans-53"/>
      </g>
     </g>
    </g>
    <g id="ytick_10">
     <g id="line2d_59">
      <path clip-path="url(#p7112dd1189)" d="M 72 376.052524 
L 648 376.052524 
" style="fill:none;stroke:#333333;stroke-dasharray:1.85,0.8;stroke-dashoffset:0;stroke-width:0.5;"/>
     </g>
     <g id="line2d_60">
      <g>
       <use style="stroke:#000000;stroke-width:0.8;" x="72" xlink:href="#me11077ff4b" y="376.052524"/>
      </g>
     </g>
     <g id="text_22">
      <!-- 10.0 -->
      <g transform="translate(46.234375 379.851743)scale(0.1 -0.1)">
       <use xlink:href="#DejaVuSans-49"/>
       <use x="63.623047" xlink:href="#DejaVuSans-48"/>
       <use x="127.246094" xlink:href="#DejaVuSans-46"/>
       <use x="159.033203" xlink:href="#DejaVuSans-48"/>
      </g>
     </g>
    </g>
    <g id="ytick_11">
     <g id="line2d_61">
      <path clip-path="url(#p7112dd1189)" d="M 72 347.119099 
L 648 347.119099 
" style="fill:none;stroke:#333333;stroke-dasharray:1.85,0.8;stroke-dashoffset:0;stroke-width:0.5;"/>
     </g>
     <g id="line2d_62">
      <g>
       <use style="stroke:#000000;stroke-width:0.8;" x="72" xlink:href="#me11077ff4b" y="347.119099"/>
      </g>
     </g>
     <g id="text_23">
      <!-- 12.5 -->
      <g transform="translate(46.234375 350.918318)scale(0.1 -0.1)">
       <use xlink:href="#DejaVuSans-49"/>
       <use x="63.623047" xlink:href="#DejaVuSans-50"/>
       <use x="127.246094" xlink:href="#DejaVuSans-46"/>
       <use x="159.033203" xlink:href="#DejaVuSans-53"/>
      </g>
     </g>
    </g>
    <g id="ytick_12">
     <g id="line2d_63">
      <path clip-path="url(#p7112dd1189)" d="M 72 318.185675 
L 648 318.185675 
" style="fill:none;stroke:#333333;stroke-dasharray:1.85,0.8;stroke-dashoffset:0;stroke-width:0.5;"/>
     </g>
     <g id="line2d_64">
      <g>
       <use style="stroke:#000000;stroke-width:0.8;" x="72" xlink:href="#me11077ff4b" y="318.185675"/>
      </g>
     </g>
     <g id="text_24">
      <!-- 15.0 -->
      <g transform="translate(46.234375 321.984894)scale(0.1 -0.1)">
       <use xlink:href="#DejaVuSans-49"/>
       <use x="63.623047" xlink:href="#DejaVuSans-53"/>
       <use x="127.246094" xlink:href="#DejaVuSans-46"/>
       <use x="159.033203" xlink:href="#DejaVuSans-48"/>
      </g>
     </g>
    </g>
    <g id="text_25">
     <!-- deaths per million -->
     <g transform="translate(39.73875 467.897727)rotate(-90)scale(0.12 -0.12)">
      <use xlink:href="#DejaVuSans-100"/>
      <use x="63.476562" xlink:href="#DejaVuSans-101"/>
      <use x="125" xlink:href="#DejaVuSans-97"/>
      <use x="186.279297" xlink:href="#DejaVuSans-116"/>
      <use x="225.488281" xlink:href="#DejaVuSans-104"/>
      <use x="288.867188" xlink:href="#DejaVuSans-115"/>
      <use x="340.966797" xlink:href="#DejaVuSans-32"/>
      <use x="372.753906" xlink:href="#DejaVuSans-112"/>
      <use x="436.230469" xlink:href="#DejaVuSans-101"/>
      <use x="497.753906" xlink:href="#DejaVuSans-114"/>
      <use x="538.867188" xlink:href="#DejaVuSans-32"/>
      <use x="570.654297" xlink:href="#DejaVuSans-109"/>
      <use x="668.066406" xlink:href="#DejaVuSans-105"/>
      <use x="695.849609" xlink:href="#DejaVuSans-108"/>
      <use x="723.632812" xlink:href="#DejaVuSans-108"/>
      <use x="751.416016" xlink:href="#DejaVuSans-105"/>
      <use x="779.199219" xlink:href="#DejaVuSans-111"/>
      <use x="840.380859" xlink:href="#DejaVuSans-110"/>
     </g>
    </g>
   </g>
   <g id="line2d_65">
    <path clip-path="url(#p7112dd1189)" d="M 280.783217 491.786222 
L 283.468531 491.786222 
L 291.524476 490.132893 
L 294.20979 491.786222 
L 296.895105 491.786222 
L 299.58042 490.132893 
L 302.265734 491.786222 
L 304.951049 491.786222 
L 307.636364 491.786222 
L 310.321678 491.786222 
L 313.006993 490.132893 
L 315.692308 491.786222 
L 318.377622 491.786222 
L 321.062937 491.786222 
L 323.748252 491.786222 
L 326.433566 491.786222 
L 329.118881 491.786222 
L 331.804196 491.786222 
L 334.48951 491.786222 
L 337.174825 485.172905 
L 339.86014 490.132893 
L 342.545455 491.786222 
L 345.230769 491.786222 
L 347.916084 488.479563 
L 350.601399 491.786222 
L 353.286713 485.172905 
L 355.972028 486.826234 
L 358.657343 486.826234 
L 361.342657 488.479563 
L 364.027972 490.132893 
L 366.713287 490.132893 
L 369.398601 491.786222 
L 372.083916 490.132893 
L 374.769231 486.826234 
L 377.454545 490.132893 
L 380.13986 486.826234 
L 382.825175 486.826234 
L 385.51049 490.132893 
L 388.195804 488.479563 
L 390.881119 486.826234 
L 393.566434 491.786222 
L 396.251748 488.479563 
L 398.937063 491.786222 
L 401.622378 488.479563 
L 404.307692 485.172905 
L 406.993007 486.826234 
L 409.678322 488.479563 
L 412.363636 490.132893 
L 415.048951 490.132893 
L 417.734266 488.479563 
L 420.41958 491.786222 
L 423.104895 481.866246 
L 425.79021 488.479563 
L 428.475524 486.826234 
L 431.160839 486.826234 
L 433.846154 490.132893 
L 436.531469 483.519575 
L 439.216783 491.786222 
L 441.902098 481.866246 
L 444.587413 491.786222 
L 447.272727 485.172905 
L 449.958042 488.479563 
L 452.643357 490.132893 
L 455.328671 488.479563 
L 458.013986 488.479563 
L 460.699301 490.132893 
L 463.384615 486.826234 
L 466.06993 486.826234 
L 468.755245 481.866246 
L 471.440559 488.479563 
L 474.125874 488.479563 
L 476.811189 485.172905 
L 479.496503 485.172905 
L 482.181818 483.519575 
L 484.867133 490.132893 
L 487.552448 491.786222 
L 490.237762 485.172905 
L 492.923077 491.786222 
L 495.608392 486.826234 
L 498.293706 491.786222 
L 500.979021 486.826234 
L 503.664336 486.826234 
L 506.34965 490.132893 
L 509.034965 491.786222 
L 511.72028 485.172905 
L 514.405594 491.786222 
L 517.090909 486.826234 
L 519.776224 491.786222 
L 522.461538 470.292941 
L 525.146853 491.786222 
L 527.832168 491.786222 
L 530.517483 485.172905 
L 533.202797 486.826234 
L 535.888112 491.786222 
L 538.573427 490.132893 
L 541.258741 485.172905 
L 543.944056 491.786222 
L 546.629371 488.479563 
L 549.314685 488.479563 
L 552 483.519575 
L 554.685315 486.826234 
L 557.370629 481.866246 
L 560.055944 486.826234 
L 562.741259 481.866246 
L 565.426573 491.786222 
L 568.111888 478.559587 
L 570.797203 490.132893 
L 573.482517 490.132893 
L 576.167832 488.479563 
L 578.853147 485.172905 
L 581.538462 490.132893 
L 584.223776 486.826234 
L 586.909091 485.172905 
L 589.594406 480.212917 
L 592.27972 488.479563 
L 594.965035 491.786222 
L 597.65035 480.212917 
L 600.335664 488.479563 
L 603.020979 483.519575 
L 605.706294 485.172905 
L 608.391608 485.172905 
L 611.076923 483.519575 
L 613.762238 486.826234 
L 616.447552 491.786222 
L 619.132867 491.786222 
L 621.818182 481.866246 
" style="fill:none;stroke:#348abd;stroke-linecap:square;stroke-width:2;"/>
   </g>
   <g id="line2d_66">
    <path clip-path="url(#p7112dd1189)" d="M 280.783217 491.562211 
L 283.468531 491.565924 
L 291.524476 491.560327 
L 294.20979 491.54573 
L 296.895105 491.522459 
L 299.58042 491.490863 
L 302.265734 491.451309 
L 304.951049 491.404177 
L 307.636364 491.349864 
L 310.321678 491.288776 
L 313.006993 491.22133 
L 315.692308 491.147952 
L 318.377622 491.069074 
L 321.062937 490.985132 
L 323.748252 490.896568 
L 326.433566 490.803822 
L 329.118881 490.707338 
L 331.804196 490.607557 
L 334.48951 490.504917 
L 337.174825 490.399853 
L 339.86014 490.292795 
L 342.545455 490.184167 
L 345.230769 490.074383 
L 347.916084 489.963852 
L 350.601399 489.852971 
L 353.286713 489.742125 
L 355.972028 489.63169 
L 358.657343 489.522029 
L 361.342657 489.413488 
L 364.027972 489.306404 
L 366.713287 489.201094 
L 369.398601 489.097863 
L 372.083916 488.996997 
L 374.769231 488.898765 
L 377.454545 488.803419 
L 380.13986 488.711194 
L 382.825175 488.622305 
L 385.51049 488.536948 
L 388.195804 488.455299 
L 390.881119 488.377516 
L 393.566434 488.303737 
L 396.251748 488.234078 
L 398.937063 488.168637 
L 401.622378 488.10749 
L 404.307692 488.050694 
L 406.993007 487.998284 
L 409.678322 487.950277 
L 412.363636 487.906667 
L 415.048951 487.867432 
L 417.734266 487.832526 
L 420.41958 487.801886 
L 423.104895 487.77543 
L 425.79021 487.753056 
L 428.475524 487.734644 
L 431.160839 487.720056 
L 433.846154 487.709139 
L 436.531469 487.701719 
L 439.216783 487.697611 
L 441.902098 487.696609 
L 444.587413 487.698498 
L 447.272727 487.703046 
L 449.958042 487.710007 
L 452.643357 487.719126 
L 455.328671 487.730135 
L 458.013986 487.742756 
L 460.699301 487.756703 
L 463.384615 487.77168 
L 466.06993 487.787386 
L 468.755245 487.803515 
L 471.440559 487.819754 
L 474.125874 487.83579 
L 476.811189 487.851306 
L 479.496503 487.865986 
L 482.181818 487.879516 
L 484.867133 487.891583 
L 487.552448 487.901879 
L 490.237762 487.910104 
L 492.923077 487.915962 
L 495.608392 487.91917 
L 498.293706 487.919454 
L 500.979021 487.916554 
L 503.664336 487.910224 
L 506.34965 487.900237 
L 509.034965 487.886383 
L 511.72028 487.868473 
L 514.405594 487.846342 
L 517.090909 487.819849 
L 519.776224 487.788882 
L 522.461538 487.753357 
L 525.146853 487.713223 
L 527.832168 487.668464 
L 530.517483 487.619098 
L 533.202797 487.565185 
L 535.888112 487.506825 
L 538.573427 487.444164 
L 541.258741 487.377392 
L 543.944056 487.306752 
L 546.629371 487.232538 
L 549.314685 487.155097 
L 552 487.074837 
L 554.685315 486.992225 
L 557.370629 486.907792 
L 560.055944 486.822137 
L 562.741259 486.735925 
L 565.426573 486.649899 
L 568.111888 486.564873 
L 570.797203 486.481744 
L 573.482517 486.40149 
L 576.167832 486.325174 
L 578.853147 486.253948 
L 581.538462 486.189058 
L 584.223776 486.131845 
L 586.909091 486.083748 
L 589.594406 486.046312 
L 592.27972 486.021185 
L 594.965035 486.010128 
L 597.65035 486.015015 
L 600.335664 486.037838 
L 603.020979 486.08071 
L 605.706294 486.145869 
L 608.391608 486.235683 
L 611.076923 486.352653 
L 613.762238 486.499418 
L 616.447552 486.678758 
L 619.132867 486.893598 
L 621.818182 487.147013 
" style="fill:none;stroke:#348abd;stroke-dasharray:7.4,3.2;stroke-dashoffset:0;stroke-width:2;"/>
   </g>
   <g id="line2d_67">
    <path clip-path="url(#p7112dd1189)" d="M 98.181818 491.786222 
L 264.671329 491.751052 
L 267.356643 491.64554 
L 278.097902 491.715881 
L 286.153846 491.61037 
L 291.524476 491.715881 
L 294.20979 491.434517 
L 296.895105 491.540029 
L 304.951049 491.223495 
L 307.636364 490.977301 
L 310.321678 490.309062 
L 313.006993 491.786222 
L 315.692308 487.91747 
L 318.377622 488.972584 
L 321.062937 487.17889 
L 323.748252 487.600935 
L 326.433566 484.365252 
L 329.118881 483.028774 
L 331.804196 483.134285 
L 334.48951 477.331156 
L 337.174825 474.763712 
L 339.86014 480.602011 
L 342.545455 468.538537 
L 345.230769 459.816259 
L 347.916084 454.540688 
L 350.601399 459.605236 
L 353.286713 452.958016 
L 355.972028 444.517102 
L 358.657343 451.480856 
L 361.342657 444.587443 
L 364.027972 424.751295 
L 366.713287 424.188567 
L 369.398601 425.91192 
L 372.083916 418.385438 
L 374.769231 427.38908 
L 377.454545 439.030508 
L 380.13986 437.588518 
L 382.825175 407.095716 
L 385.51049 318.466116 
L 388.195804 410.929297 
L 390.881119 359.193527 
L 393.566434 426.509818 
L 396.251748 429.464138 
L 398.937063 426.474648 
L 401.622378 403.01594 
L 404.307692 431.257833 
L 406.993007 379.979278 
L 409.678322 454.71654 
L 412.363636 415.395948 
L 415.048951 432.453629 
L 417.734266 443.63784 
L 420.41958 417.576517 
L 423.104895 399.956109 
L 425.79021 420.038451 
L 428.475524 419.2647 
L 431.160839 445.466705 
L 433.846154 446.170115 
L 436.531469 447.752786 
L 439.216783 416.380721 
L 441.902098 409.030092 
L 444.587413 413.039526 
L 447.272727 438.678803 
L 449.958042 435.021074 
L 452.643357 465.971093 
L 455.328671 451.129152 
L 458.013986 431.890901 
L 460.699301 430.378571 
L 463.384615 429.428968 
L 466.06993 433.332891 
L 468.755245 450.074037 
L 471.440559 463.368477 
L 474.125874 463.966376 
L 476.811189 436.638916 
L 479.496503 438.397439 
L 482.181818 447.365911 
L 484.867133 445.888751 
L 487.552448 453.802108 
L 490.237762 469.523311 
L 492.923077 474.200984 
L 495.608392 467.307571 
L 498.293706 438.116076 
L 500.979021 450.460913 
L 503.664336 448.913412 
L 506.34965 458.550122 
L 509.034965 470.613596 
L 511.72028 464.915978 
L 514.405594 455.41995 
L 517.090909 456.826769 
L 519.776224 455.349609 
L 522.461538 459.007338 
L 525.146853 468.608878 
L 527.832168 466.744843 
L 530.517483 474.447177 
L 533.202797 456.650916 
L 535.888112 459.499725 
L 538.573427 460.273476 
L 541.258741 461.926488 
L 543.944056 464.810467 
L 546.629371 481.375761 
L 549.314685 477.893884 
L 552 462.383704 
L 554.685315 465.267683 
L 560.055944 467.940639 
L 562.741259 470.437743 
L 565.426573 482.78258 
L 568.111888 476.768429 
L 570.797203 462.735409 
L 573.482517 465.373195 
L 576.167832 406.075772 
L 578.853147 469.875016 
L 581.538462 474.200984 
L 584.223776 482.466046 
L 586.909091 479.968942 
L 589.594406 447.119717 
L 592.27972 468.855072 
L 594.965035 467.940639 
L 597.65035 467.377912 
L 600.335664 483.274967 
L 603.020979 482.255023 
L 605.706294 479.160021 
L 608.391608 450.496083 
L 611.076923 462.629897 
L 613.762238 457.248815 
L 616.447552 463.438818 
L 619.132867 466.568991 
L 621.818182 478.034566 
L 621.818182 478.034566 
" style="fill:none;stroke:#a60628;stroke-linecap:square;stroke-width:2;"/>
   </g>
   <g id="line2d_68">
    <path clip-path="url(#p7112dd1189)" d="M 98.181818 508.879339 
L 100.867133 504.826096 
L 103.552448 501.202501 
L 106.237762 497.983213 
L 108.923077 495.143753 
L 111.608392 492.66049 
L 114.293706 490.510621 
L 116.979021 488.672161 
L 119.664336 487.123921 
L 122.34965 485.845494 
L 125.034965 484.817239 
L 127.72028 484.020267 
L 130.405594 483.436424 
L 133.090909 483.048274 
L 135.776224 482.839089 
L 138.461538 482.792827 
L 141.146853 482.894121 
L 143.832168 483.128264 
L 149.202797 483.939483 
L 154.573427 485.121465 
L 159.944056 486.578817 
L 168 489.09497 
L 189.482517 496.087828 
L 194.853147 497.602529 
L 200.223776 498.940037 
L 205.594406 500.069511 
L 210.965035 500.965823 
L 216.335664 501.609189 
L 221.706294 501.984813 
L 227.076923 502.082542 
L 232.447552 501.896524 
L 237.818182 501.424882 
L 243.188811 500.669391 
L 248.559441 499.635168 
L 253.93007 498.330367 
L 259.300699 496.765889 
L 264.671329 494.955091 
L 270.041958 492.913517 
L 275.412587 490.658628 
L 280.783217 488.209541 
L 288.839161 484.217024 
L 296.895105 479.908002 
L 304.951049 475.360641 
L 318.377622 467.471815 
L 337.174825 456.40905 
L 345.230769 451.880337 
L 353.286713 447.585778 
L 361.342657 443.592754 
L 366.713287 441.128818 
L 372.083916 438.8428 
L 377.454545 436.749749 
L 382.825175 434.863167 
L 388.195804 433.194933 
L 393.566434 431.755232 
L 398.937063 430.55249 
L 404.307692 429.593329 
L 409.678322 428.882516 
L 415.048951 428.422933 
L 420.41958 428.21555 
L 425.79021 428.259409 
L 431.160839 428.551615 
L 436.531469 429.087338 
L 441.902098 429.859825 
L 447.272727 430.860413 
L 452.643357 432.078567 
L 458.013986 433.501908 
L 463.384615 435.116261 
L 468.755245 436.905716 
L 476.811189 439.879293 
L 484.867133 443.140855 
L 495.608392 447.80954 
L 525.146853 460.978365 
L 533.202797 464.220114 
L 538.573427 466.201355 
L 543.944056 468.004237 
L 549.314685 469.599414 
L 554.685315 470.957894 
L 560.055944 472.051244 
L 565.426573 472.85181 
L 570.797203 473.332937 
L 576.167832 473.469207 
L 581.538462 473.236678 
L 586.909091 472.613139 
L 592.27972 471.578366 
L 597.65035 470.114398 
L 603.020979 468.205808 
L 608.391608 465.839995 
L 613.762238 463.007478 
L 619.132867 459.702206 
L 621.818182 457.871408 
L 621.818182 457.871408 
" style="fill:none;stroke:#a60628;stroke-dasharray:7.4,3.2;stroke-dashoffset:0;stroke-width:2;"/>
   </g>
   <g id="line2d_69">
    <path clip-path="url(#p7112dd1189)" d="M 98.181818 491.786222 
L 329.118881 491.786222 
L 331.804196 491.627544 
L 342.545455 491.627544 
L 345.230769 491.230849 
L 350.601399 491.310188 
L 353.286713 491.468866 
L 355.972028 491.072171 
L 358.657343 491.627544 
L 361.342657 491.627544 
L 364.027972 490.913492 
L 366.713287 491.389527 
L 369.398601 490.754814 
L 372.083916 490.358119 
L 374.769231 490.834153 
L 377.454545 489.882084 
L 380.13986 490.358119 
L 382.825175 490.040763 
L 390.881119 488.53332 
L 393.566434 488.612659 
L 396.251748 487.977947 
L 398.937063 488.295303 
L 404.307692 487.263895 
L 406.993007 488.453981 
L 409.678322 487.025878 
L 412.363636 486.549843 
L 415.048951 486.549843 
L 417.734266 487.977947 
L 420.41958 486.073809 
L 423.104895 483.45562 
L 428.475524 484.169671 
L 431.160839 487.581251 
L 433.846154 487.184556 
L 439.216783 484.24901 
L 441.902098 484.963062 
L 444.587413 484.804384 
L 447.272727 484.010993 
L 449.958042 483.534959 
L 452.643357 484.804384 
L 455.328671 484.328349 
L 458.013986 483.296941 
L 460.699301 484.169671 
L 463.384615 484.407688 
L 466.06993 482.820907 
L 468.755245 482.344873 
L 471.440559 484.328349 
L 474.125874 484.566367 
L 476.811189 482.662229 
L 479.496503 481.075447 
L 482.181818 481.71016 
L 484.867133 479.885361 
L 487.552448 480.758091 
L 490.237762 479.647344 
L 492.923077 484.487027 
L 495.608392 477.981224 
L 498.293706 479.012631 
L 500.979021 477.981224 
L 503.664336 473.379557 
L 506.34965 477.42585 
L 509.034965 480.83743 
L 511.72028 478.933292 
L 514.405594 477.346511 
L 517.090909 477.663867 
L 519.776224 478.377919 
L 522.461538 480.361396 
L 525.146853 476.156425 
L 527.832168 481.154786 
L 530.517483 482.900246 
L 533.202797 478.29858 
L 535.888112 474.569643 
L 538.573427 477.981224 
L 541.258741 477.267172 
L 543.944056 482.741568 
L 546.629371 482.344873 
L 549.314685 480.440735 
L 552 476.473781 
L 554.685315 476.394442 
L 557.370629 467.032432 
L 560.055944 477.346511 
L 562.741259 489.40605 
L 565.426573 483.138263 
L 568.111888 484.24901 
L 570.797203 479.647344 
L 573.482517 479.568005 
L 576.167832 484.487027 
L 578.853147 477.822545 
L 581.538462 476.870477 
L 584.223776 483.534959 
L 586.909091 484.407688 
L 592.27972 474.648982 
L 594.965035 480.123378 
L 597.65035 477.822545 
L 600.335664 478.457258 
L 603.020979 481.154786 
L 605.706294 481.075447 
L 608.391608 476.077086 
L 611.076923 478.060563 
L 613.762238 477.822545 
L 616.447552 477.981224 
L 619.132867 476.870477 
L 621.818182 481.472143 
L 621.818182 481.472143 
" style="fill:none;stroke:#7a68a6;stroke-linecap:square;stroke-width:2;"/>
   </g>
   <g id="line2d_70">
    <path clip-path="url(#p7112dd1189)" d="M 98.181818 490.825445 
L 106.237762 491.505017 
L 114.293706 491.934986 
L 125.034965 492.214707 
L 135.776224 492.259169 
L 151.888112 492.075064 
L 197.538462 491.39072 
L 219.020979 491.379284 
L 243.188811 491.618096 
L 296.895105 492.256424 
L 315.692308 492.192535 
L 331.804196 491.917431 
L 347.916084 491.408268 
L 364.027972 490.654951 
L 380.13986 489.66688 
L 398.937063 488.256968 
L 420.41958 486.40324 
L 468.755245 482.132976 
L 484.867133 480.963927 
L 498.293706 480.177543 
L 511.72028 479.593417 
L 525.146853 479.226402 
L 538.573427 479.072518 
L 554.685315 479.127919 
L 597.65035 479.524835 
L 608.391608 479.276436 
L 616.447552 478.857581 
L 621.818182 478.432296 
L 621.818182 478.432296 
" style="fill:none;stroke:#7a68a6;stroke-dasharray:7.4,3.2;stroke-dashoffset:0;stroke-width:2;"/>
   </g>
   <g id="patch_9">
    <path d="M 72 518.4 
L 72 308.945455 
" style="fill:none;stroke:#bcbcbc;stroke-linecap:square;stroke-linejoin:miter;stroke-width:0.8;"/>
   </g>
   <g id="patch_10">
    <path d="M 648 518.4 
L 648 308.945455 
" style="fill:none;stroke:#bcbcbc;stroke-linecap:square;stroke-linejoin:miter;stroke-width:0.8;"/>
   </g>
   <g id="patch_11">
    <path d="M 72 518.4 
L 648 518.4 
" style="fill:none;stroke:#bcbcbc;stroke-linecap:square;stroke-linejoin:miter;stroke-width:0.8;"/>
   </g>
   <g id="patch_12">
    <path d="M 72 308.945455 
L 648 308.945455 
" style="fill:none;stroke:#bcbcbc;stroke-linecap:square;stroke-linejoin:miter;stroke-width:0.8;"/>
   </g>
   <g id="legend_2">
    <g id="patch_13">
     <path d="M 594.565625 360.97983 
L 641 360.97983 
Q 643 360.97983 643 358.97983 
L 643 315.945455 
Q 643 313.945455 641 313.945455 
L 594.565625 313.945455 
Q 592.565625 313.945455 592.565625 315.945455 
L 592.565625 358.97983 
Q 592.565625 360.97983 594.565625 360.97983 
z
" style="fill:#eeeeee;opacity:0.8;stroke:#cccccc;stroke-linejoin:miter;stroke-width:0.5;"/>
    </g>
    <g id="line2d_71">
     <path d="M 596.565625 322.043892 
L 616.565625 322.043892 
" style="fill:none;stroke:#348abd;stroke-linecap:square;stroke-width:2;"/>
    </g>
    <g id="line2d_72"/>
    <g id="text_26">
     <!-- BG -->
     <g transform="translate(624.565625 325.543892)scale(0.1 -0.1)">
      <use xlink:href="#DejaVuSans-66"/>
      <use x="66.853516" xlink:href="#DejaVuSans-71"/>
     </g>
    </g>
    <g id="line2d_73">
     <path d="M 596.565625 336.722017 
L 616.565625 336.722017 
" style="fill:none;stroke:#a60628;stroke-linecap:square;stroke-width:2;"/>
    </g>
    <g id="line2d_74"/>
    <g id="text_27">
     <!-- US -->
     <g transform="translate(624.565625 340.222017)scale(0.1 -0.1)">
      <use xlink:href="#DejaVuSans-85"/>
      <use x="73.193359" xlink:href="#DejaVuSans-83"/>
     </g>
    </g>
    <g id="line2d_75">
     <path d="M 596.565625 351.400142 
L 616.565625 351.400142 
" style="fill:none;stroke:#7a68a6;stroke-linecap:square;stroke-width:2;"/>
    </g>
    <g id="line2d_76"/>
    <g id="text_28">
     <!-- RU -->
     <g transform="translate(624.565625 354.900142)scale(0.1 -0.1)">
      <use xlink:href="#DejaVuSans-82"/>
      <use x="69.482422" xlink:href="#DejaVuSans-85"/>
     </g>
    </g>
   </g>
  </g>
 </g>
 <defs>
  <clipPath id="p5477694139">
   <rect height="209.454545" width="576" x="72" y="57.6"/>
  </clipPath>
  <clipPath id="p7112dd1189">
   <rect height="209.454545" width="576" x="72" y="308.945455"/>
  </clipPath>
 </defs>
</svg>
